M48
;GenerationSoftware,Autodesk,EAGLE,9.7.0*%
;CreationDate,2025-04-13T19:25:34Z*%
FMAT,2
ICI,OFF
METRIC,TZ,000.000
T2C0.350
T1C1.040
%
G90
M71
T1
X35897Y36830
X33357Y36830
X30817Y36830
X25737Y36830
X23197Y36830
X20657Y36830
X18117Y36830
X15577Y36830
X28277Y36830
X61297Y11430
X58757Y11430
X56217Y11430
X53677Y11430
X51137Y11430
X48597Y11430
X46057Y11430
X43517Y11430
X40977Y11430
X38437Y11430
X33357Y11430
X30817Y11430
X28277Y11430
X25737Y11430
X23197Y11430
X20657Y11430
X48597Y36830
X18117Y11430
X15577Y11430
X61297Y36830
X58757Y36830
X56217Y36830
X53677Y36830
X51137Y36830
X35897Y11430
X46057Y36830
X43517Y36830
X40977Y36830
X38437Y36830
T2
X12859Y36671
X13811Y35719
X65881Y28257
X65881Y7620
X11906Y36671
X13652Y37465
X70644Y33655
X29051Y40640
X19368Y43180
X55880Y42545
X54769Y41434
X54769Y32067
X34608Y8890
X53816Y44132
X19368Y44450
X52070Y43815
X26987Y43815
X41116Y42228
X11271Y43180
X7461Y37624
X9684Y42704
X73025Y23495
X6826Y22701
X8573Y37624
X10478Y33179
X72549Y33020
X7302Y33179
X56674Y44132
M30