G04 EAGLE Gerber RS-274X export*
G75*
%MOMM*%
%FSLAX34Y34*%
%LPD*%
%INTop Copper*%
%IPPOS*%
%AMOC8*
5,1,8,0,0,1.08239X$1,22.5*%
G01*
G04 Define Apertures*
%ADD10R,1.795500X1.188700*%
%ADD11R,0.611800X0.911800*%
%ADD12R,1.114600X1.361200*%
%ADD13R,2.392000X1.565300*%
%ADD14R,0.535100X0.644000*%
%ADD15C,0.270000*%
%ADD16R,1.750000X1.550000*%
%ADD17R,0.790000X0.280000*%
%ADD18R,0.280000X0.790000*%
%ADD19R,1.560000X1.560000*%
%ADD20C,1.560000*%
%ADD21C,0.150000*%
%ADD22R,2.413000X3.302000*%
%ADD23R,0.750000X0.350000*%
%ADD24R,1.860300X0.897900*%
%ADD25R,1.860300X3.189100*%
%ADD26C,0.152400*%
%ADD27C,0.756400*%
G36*
X759375Y223428D02*
X759078Y223368D01*
X745381Y223368D01*
X745095Y223423D01*
X744842Y223591D01*
X735779Y232654D01*
X735616Y232895D01*
X735556Y233193D01*
X735556Y237148D01*
X732448Y240256D01*
X728052Y240256D01*
X727487Y239691D01*
X727267Y239538D01*
X726972Y239468D01*
X726673Y239519D01*
X726418Y239682D01*
X726246Y239932D01*
X726186Y240229D01*
X726186Y271171D01*
X726237Y271445D01*
X726401Y271701D01*
X726651Y271872D01*
X726948Y271933D01*
X733110Y271933D01*
X734003Y272825D01*
X734003Y285975D01*
X733110Y286868D01*
X726948Y286868D01*
X726673Y286919D01*
X726418Y287082D01*
X726246Y287332D01*
X726186Y287630D01*
X726186Y324132D01*
X726237Y324407D01*
X726401Y324662D01*
X726651Y324834D01*
X726948Y324894D01*
X727685Y324894D01*
X730794Y328002D01*
X730794Y331957D01*
X730849Y332243D01*
X731017Y332496D01*
X743190Y344670D01*
X743410Y344823D01*
X743705Y344893D01*
X744004Y344842D01*
X744259Y344678D01*
X744431Y344428D01*
X744491Y344131D01*
X744491Y343662D01*
X751842Y343662D01*
X751842Y352246D01*
X747586Y352246D01*
X747311Y352297D01*
X747055Y352461D01*
X746884Y352711D01*
X746824Y353008D01*
X746824Y386709D01*
X742309Y391224D01*
X741936Y391224D01*
X741661Y391275D01*
X741406Y391438D01*
X741234Y391688D01*
X741174Y391986D01*
X741174Y392781D01*
X740094Y393861D01*
X739936Y394092D01*
X739871Y394388D01*
X739927Y394686D01*
X740094Y394939D01*
X741174Y396019D01*
X741174Y400781D01*
X740094Y401861D01*
X739936Y402092D01*
X739871Y402388D01*
X739927Y402686D01*
X740094Y402939D01*
X741174Y404019D01*
X741174Y408781D01*
X740813Y409143D01*
X740655Y409373D01*
X740589Y409669D01*
X740645Y409968D01*
X740813Y410220D01*
X742190Y411598D01*
X742190Y413638D01*
X729610Y413638D01*
X729610Y411598D01*
X730988Y410220D01*
X731146Y409990D01*
X731211Y409694D01*
X731155Y409396D01*
X730988Y409143D01*
X730626Y408781D01*
X730626Y404019D01*
X731706Y402939D01*
X731864Y402708D01*
X731929Y402412D01*
X731873Y402114D01*
X731706Y401861D01*
X730626Y400781D01*
X730626Y396019D01*
X731706Y394939D01*
X731864Y394708D01*
X731929Y394412D01*
X731873Y394114D01*
X731706Y393861D01*
X730626Y392781D01*
X730626Y388019D01*
X731706Y386939D01*
X731864Y386708D01*
X731929Y386412D01*
X731873Y386114D01*
X731706Y385861D01*
X730626Y384781D01*
X730626Y380019D01*
X731519Y379126D01*
X740281Y379126D01*
X740951Y379795D01*
X741170Y379948D01*
X741465Y380018D01*
X741764Y379967D01*
X742020Y379804D01*
X742191Y379554D01*
X742252Y379257D01*
X742252Y350513D01*
X742196Y350227D01*
X742028Y349974D01*
X728994Y336939D01*
X728774Y336786D01*
X728479Y336716D01*
X728180Y336767D01*
X727925Y336931D01*
X727753Y337181D01*
X727693Y337478D01*
X727693Y350337D01*
X726800Y351230D01*
X715078Y351230D01*
X714814Y351277D01*
X714556Y351436D01*
X714381Y351684D01*
X714316Y351980D01*
X714371Y352278D01*
X714539Y352531D01*
X723011Y361003D01*
X723011Y411487D01*
X723067Y411773D01*
X723234Y412026D01*
X728309Y417101D01*
X728529Y417254D01*
X728824Y417324D01*
X729123Y417273D01*
X729378Y417110D01*
X729550Y416860D01*
X729610Y416562D01*
X729610Y415162D01*
X742190Y415162D01*
X742190Y417202D01*
X740813Y418580D01*
X740655Y418810D01*
X740589Y419106D01*
X740645Y419404D01*
X740813Y419657D01*
X741174Y420019D01*
X741174Y424781D01*
X740094Y425861D01*
X739936Y426092D01*
X739871Y426388D01*
X739927Y426686D01*
X740094Y426939D01*
X741174Y428019D01*
X741174Y432781D01*
X740281Y433674D01*
X731519Y433674D01*
X730626Y432781D01*
X730626Y428019D01*
X731706Y426939D01*
X731864Y426708D01*
X731929Y426412D01*
X731873Y426114D01*
X731706Y425861D01*
X730629Y424784D01*
X730387Y424621D01*
X730090Y424561D01*
X729303Y424561D01*
X718475Y413733D01*
X718255Y413580D01*
X717960Y413510D01*
X717661Y413561D01*
X717406Y413724D01*
X717234Y413974D01*
X717174Y414272D01*
X717174Y416781D01*
X716094Y417861D01*
X715936Y418092D01*
X715871Y418388D01*
X715927Y418686D01*
X716094Y418939D01*
X717174Y420019D01*
X717174Y424781D01*
X716094Y425861D01*
X715936Y426092D01*
X715871Y426388D01*
X715927Y426686D01*
X716094Y426939D01*
X717174Y428019D01*
X717174Y432781D01*
X716281Y433674D01*
X707519Y433674D01*
X706626Y432781D01*
X706626Y428019D01*
X707195Y427449D01*
X707348Y427230D01*
X707418Y426935D01*
X707367Y426636D01*
X707204Y426380D01*
X706954Y426209D01*
X706657Y426149D01*
X679125Y426149D01*
X678839Y426204D01*
X678586Y426372D01*
X651822Y453136D01*
X492766Y453136D01*
X476397Y436767D01*
X476155Y436604D01*
X475858Y436544D01*
X474218Y436544D01*
X473326Y435651D01*
X473326Y434848D01*
X473274Y434573D01*
X473111Y434318D01*
X472861Y434146D01*
X472564Y434086D01*
X463225Y434086D01*
X462939Y434142D01*
X462686Y434309D01*
X454972Y442024D01*
X433063Y442024D01*
X432777Y442079D01*
X432524Y442247D01*
X431159Y443611D01*
X359416Y443611D01*
X357726Y441922D01*
X357496Y441764D01*
X357200Y441699D01*
X356902Y441754D01*
X356649Y441922D01*
X340031Y458539D01*
X339878Y458759D01*
X339808Y459054D01*
X339859Y459353D01*
X340023Y459608D01*
X340273Y459780D01*
X340570Y459840D01*
X700000Y459840D01*
X700085Y459835D01*
X713231Y458354D01*
X713398Y458316D01*
X725885Y453947D01*
X726038Y453873D01*
X737240Y446834D01*
X737373Y446728D01*
X746728Y437373D01*
X746834Y437240D01*
X753873Y426038D01*
X753947Y425885D01*
X758316Y413398D01*
X758354Y413231D01*
X759835Y400085D01*
X759840Y400000D01*
X759840Y353008D01*
X759789Y352733D01*
X759625Y352478D01*
X759375Y352306D01*
X759078Y352246D01*
X753366Y352246D01*
X753366Y333554D01*
X759078Y333554D01*
X759353Y333503D01*
X759608Y333339D01*
X759780Y333089D01*
X759840Y332792D01*
X759840Y288646D01*
X759789Y288371D01*
X759625Y288115D01*
X759375Y287944D01*
X759078Y287884D01*
X750461Y287884D01*
X750461Y270917D01*
X759078Y270917D01*
X759353Y270865D01*
X759608Y270702D01*
X759780Y270452D01*
X759840Y270155D01*
X759840Y224130D01*
X759789Y223855D01*
X759625Y223599D01*
X759375Y223428D01*
G37*
%LPC*%
G36*
X745979Y333554D02*
X751842Y333554D01*
X751842Y342138D01*
X744491Y342138D01*
X744491Y335042D01*
X745979Y333554D01*
G37*
G36*
X738182Y280162D02*
X748937Y280162D01*
X748937Y287884D01*
X739669Y287884D01*
X738182Y286396D01*
X738182Y280162D01*
G37*
G36*
X739669Y270917D02*
X748937Y270917D01*
X748937Y278638D01*
X738182Y278638D01*
X738182Y272404D01*
X739669Y270917D01*
G37*
%LPD*%
G36*
X700085Y40165D02*
X700000Y40160D01*
X100000Y40160D01*
X99915Y40165D01*
X86769Y41646D01*
X86602Y41684D01*
X74115Y46053D01*
X73962Y46127D01*
X62760Y53166D01*
X62627Y53272D01*
X53272Y62627D01*
X53166Y62760D01*
X46127Y73962D01*
X46053Y74115D01*
X41684Y86602D01*
X41646Y86769D01*
X40165Y99915D01*
X40160Y100000D01*
X40160Y231043D01*
X40207Y231306D01*
X40366Y231564D01*
X40614Y231740D01*
X40910Y231805D01*
X41208Y231749D01*
X41461Y231582D01*
X42109Y230934D01*
X54359Y230934D01*
X54359Y251667D01*
X42109Y251667D01*
X41461Y251018D01*
X41241Y250865D01*
X40946Y250796D01*
X40647Y250846D01*
X40392Y251010D01*
X40220Y251260D01*
X40160Y251557D01*
X40160Y400000D01*
X40165Y400085D01*
X41646Y413231D01*
X41684Y413398D01*
X46053Y425885D01*
X46127Y426038D01*
X53166Y437240D01*
X53272Y437373D01*
X62627Y446728D01*
X62760Y446834D01*
X73962Y453873D01*
X74115Y453947D01*
X86602Y458316D01*
X86769Y458354D01*
X90031Y458722D01*
X90380Y458679D01*
X90638Y458520D01*
X90813Y458273D01*
X90878Y457977D01*
X90823Y457678D01*
X90655Y457426D01*
X67564Y434334D01*
X67564Y432336D01*
X67513Y432061D01*
X67349Y431806D01*
X67099Y431634D01*
X66802Y431574D01*
X66637Y431574D01*
X66508Y431486D01*
X66212Y431421D01*
X65914Y431477D01*
X65767Y431574D01*
X61669Y431574D01*
X60776Y430681D01*
X60776Y422586D01*
X60725Y422311D01*
X60561Y422056D01*
X60311Y421884D01*
X60014Y421824D01*
X51919Y421824D01*
X51026Y420931D01*
X51026Y416837D01*
X51114Y416708D01*
X51179Y416412D01*
X51123Y416114D01*
X51026Y415967D01*
X51026Y411837D01*
X51114Y411708D01*
X51179Y411412D01*
X51123Y411114D01*
X51026Y410967D01*
X51026Y406837D01*
X51114Y406708D01*
X51179Y406412D01*
X51123Y406114D01*
X51026Y405967D01*
X51026Y401837D01*
X51114Y401708D01*
X51179Y401412D01*
X51123Y401114D01*
X51026Y400967D01*
X51026Y396837D01*
X51114Y396708D01*
X51179Y396412D01*
X51123Y396114D01*
X51026Y395967D01*
X51026Y391869D01*
X51919Y390976D01*
X60014Y390976D01*
X60289Y390925D01*
X60544Y390761D01*
X60716Y390511D01*
X60776Y390214D01*
X60776Y382119D01*
X61669Y381226D01*
X65215Y381226D01*
X65489Y381175D01*
X65745Y381011D01*
X65916Y380761D01*
X65977Y380464D01*
X65977Y372116D01*
X70516Y367576D01*
X70679Y367335D01*
X70739Y367037D01*
X70739Y347134D01*
X70692Y346870D01*
X70533Y346612D01*
X70285Y346437D01*
X69989Y346372D01*
X69691Y346427D01*
X69438Y346595D01*
X68504Y347530D01*
X58912Y347530D01*
X58912Y333471D01*
X66957Y333471D01*
X67232Y333419D01*
X67487Y333256D01*
X67659Y333006D01*
X67719Y332709D01*
X67719Y330030D01*
X67663Y329744D01*
X67496Y329491D01*
X61741Y323737D01*
X61500Y323574D01*
X61202Y323514D01*
X48217Y323514D01*
X47325Y322621D01*
X47325Y312379D01*
X48217Y311487D01*
X68083Y311487D01*
X68976Y312379D01*
X68976Y322621D01*
X68572Y323024D01*
X68414Y323255D01*
X68349Y323551D01*
X68405Y323849D01*
X68572Y324102D01*
X70729Y326258D01*
X70970Y326421D01*
X71268Y326482D01*
X75223Y326482D01*
X78331Y329590D01*
X78331Y333985D01*
X75534Y336782D01*
X75371Y337024D01*
X75311Y337321D01*
X75311Y366840D01*
X75362Y367114D01*
X75526Y367370D01*
X75776Y367541D01*
X76073Y367602D01*
X89847Y367602D01*
X97536Y375291D01*
X97536Y390214D01*
X97587Y390489D01*
X97751Y390744D01*
X98001Y390916D01*
X98298Y390976D01*
X100481Y390976D01*
X101374Y391869D01*
X101374Y395963D01*
X101286Y396092D01*
X101221Y396388D01*
X101277Y396686D01*
X101374Y396833D01*
X101374Y400963D01*
X101286Y401092D01*
X101221Y401388D01*
X101277Y401686D01*
X101374Y401833D01*
X101374Y405963D01*
X101286Y406092D01*
X101221Y406388D01*
X101277Y406686D01*
X101374Y406833D01*
X101374Y410963D01*
X101286Y411092D01*
X101221Y411388D01*
X101277Y411686D01*
X101374Y411833D01*
X101374Y415963D01*
X101286Y416092D01*
X101221Y416388D01*
X101277Y416686D01*
X101374Y416833D01*
X101374Y420931D01*
X100343Y421962D01*
X100185Y422192D01*
X100120Y422489D01*
X100176Y422787D01*
X100343Y423040D01*
X102144Y424840D01*
X102144Y429235D01*
X99035Y432344D01*
X94640Y432344D01*
X92840Y430543D01*
X92609Y430385D01*
X92313Y430320D01*
X92015Y430376D01*
X91762Y430543D01*
X90731Y431574D01*
X86637Y431574D01*
X86508Y431486D01*
X86212Y431421D01*
X85914Y431477D01*
X85767Y431574D01*
X81637Y431574D01*
X81508Y431486D01*
X81212Y431421D01*
X80914Y431477D01*
X80767Y431574D01*
X76637Y431574D01*
X76508Y431486D01*
X76212Y431421D01*
X75914Y431477D01*
X75767Y431574D01*
X73109Y431574D01*
X72846Y431621D01*
X72588Y431780D01*
X72412Y432028D01*
X72347Y432324D01*
X72403Y432622D01*
X72570Y432875D01*
X94386Y454691D01*
X94628Y454854D01*
X94925Y454914D01*
X114498Y454914D01*
X114773Y454863D01*
X115028Y454699D01*
X115200Y454449D01*
X115260Y454152D01*
X115260Y451612D01*
X128412Y451612D01*
X128412Y445310D01*
X137033Y445310D01*
X137308Y445259D01*
X137563Y445095D01*
X137735Y444845D01*
X137795Y444548D01*
X137795Y443436D01*
X137744Y443161D01*
X137580Y442906D01*
X137330Y442734D01*
X137033Y442674D01*
X117608Y442674D01*
X116276Y441342D01*
X116276Y438912D01*
X116220Y438626D01*
X116053Y438373D01*
X115009Y437329D01*
X114767Y437166D01*
X114470Y437106D01*
X110515Y437106D01*
X107407Y433998D01*
X107407Y429602D01*
X110515Y426494D01*
X114498Y426494D01*
X114773Y426443D01*
X115028Y426279D01*
X115074Y426212D01*
X126888Y426212D01*
X126888Y430990D01*
X118781Y430990D01*
X118506Y431041D01*
X118250Y431205D01*
X118079Y431455D01*
X118019Y431752D01*
X118019Y432864D01*
X118070Y433139D01*
X118233Y433394D01*
X118483Y433566D01*
X118781Y433626D01*
X137033Y433626D01*
X137308Y433575D01*
X137563Y433411D01*
X137735Y433161D01*
X137795Y432864D01*
X137795Y432562D01*
X151638Y432562D01*
X151638Y450850D01*
X140802Y450850D01*
X140527Y450901D01*
X140272Y451065D01*
X140100Y451315D01*
X140040Y451612D01*
X140040Y454152D01*
X140091Y454427D01*
X140255Y454682D01*
X140505Y454854D01*
X140802Y454914D01*
X163998Y454914D01*
X164273Y454863D01*
X164528Y454699D01*
X164700Y454449D01*
X164760Y454152D01*
X164760Y451612D01*
X164709Y451337D01*
X164545Y451082D01*
X164295Y450910D01*
X163998Y450850D01*
X153162Y450850D01*
X153162Y432562D01*
X167005Y432562D01*
X167005Y432864D01*
X167056Y433139D01*
X167220Y433394D01*
X167470Y433566D01*
X167767Y433626D01*
X187246Y433626D01*
X187288Y433655D01*
X187583Y433725D01*
X187882Y433674D01*
X188137Y433511D01*
X188309Y433261D01*
X188369Y432963D01*
X188369Y430637D01*
X188322Y430373D01*
X188163Y430115D01*
X187915Y429940D01*
X187619Y429875D01*
X187321Y429930D01*
X187255Y429974D01*
X167767Y429974D01*
X167492Y430025D01*
X167237Y430189D01*
X167065Y430439D01*
X167005Y430736D01*
X167005Y431038D01*
X153162Y431038D01*
X153162Y412750D01*
X165014Y412750D01*
X165289Y412699D01*
X165544Y412535D01*
X165716Y412285D01*
X165776Y411988D01*
X165776Y409558D01*
X166449Y408885D01*
X166607Y408654D01*
X166672Y408358D01*
X166617Y408060D01*
X166449Y407807D01*
X138821Y380179D01*
X138580Y380016D01*
X138282Y379956D01*
X134327Y379956D01*
X132174Y377803D01*
X131955Y377650D01*
X131660Y377580D01*
X131361Y377631D01*
X131105Y377795D01*
X130934Y378045D01*
X130874Y378342D01*
X130874Y407464D01*
X130925Y407739D01*
X131088Y407994D01*
X131338Y408166D01*
X131636Y408226D01*
X137692Y408226D01*
X139024Y409558D01*
X139024Y411988D01*
X139075Y412263D01*
X139239Y412518D01*
X139489Y412690D01*
X139786Y412750D01*
X151638Y412750D01*
X151638Y431038D01*
X137414Y431038D01*
X137414Y431108D01*
X137330Y431050D01*
X137033Y430990D01*
X128412Y430990D01*
X128412Y419910D01*
X137033Y419910D01*
X137308Y419859D01*
X137563Y419695D01*
X137735Y419445D01*
X137795Y419148D01*
X137795Y418036D01*
X137744Y417761D01*
X137580Y417506D01*
X137330Y417334D01*
X137033Y417274D01*
X117608Y417274D01*
X116276Y415942D01*
X116276Y409558D01*
X117608Y408226D01*
X125540Y408226D01*
X125814Y408175D01*
X126070Y408011D01*
X126241Y407761D01*
X126302Y407464D01*
X126302Y372246D01*
X126246Y371960D01*
X126078Y371707D01*
X124364Y369993D01*
X124133Y369835D01*
X123837Y369770D01*
X123539Y369825D01*
X123286Y369993D01*
X121260Y372019D01*
X116865Y372019D01*
X113757Y368910D01*
X113757Y364515D01*
X116553Y361718D01*
X116716Y361476D01*
X116777Y361179D01*
X116777Y356863D01*
X116721Y356577D01*
X116553Y356324D01*
X60966Y300737D01*
X60725Y300574D01*
X60427Y300514D01*
X48217Y300514D01*
X47325Y299621D01*
X47325Y289379D01*
X48217Y288487D01*
X68083Y288487D01*
X68976Y289379D01*
X68976Y299621D01*
X68185Y300412D01*
X68027Y300642D01*
X67962Y300938D01*
X68017Y301236D01*
X68185Y301489D01*
X98168Y331473D01*
X98388Y331626D01*
X98683Y331696D01*
X98982Y331645D01*
X99237Y331481D01*
X99409Y331231D01*
X99469Y330934D01*
X99469Y329590D01*
X102577Y326482D01*
X106532Y326482D01*
X106818Y326426D01*
X107071Y326258D01*
X108601Y324728D01*
X108764Y324487D01*
X108825Y324189D01*
X108825Y300923D01*
X109717Y300031D01*
X116015Y300031D01*
X116289Y299979D01*
X116545Y299816D01*
X116716Y299566D01*
X116777Y299269D01*
X116777Y264788D01*
X116721Y264502D01*
X116553Y264249D01*
X103178Y250874D01*
X102937Y250711D01*
X102639Y250651D01*
X84688Y250651D01*
X83795Y249758D01*
X83795Y232842D01*
X84688Y231950D01*
X95377Y231950D01*
X95652Y231898D01*
X95907Y231735D01*
X96079Y231485D01*
X96139Y231188D01*
X96139Y189553D01*
X97426Y188266D01*
X97584Y188036D01*
X97649Y187740D01*
X97593Y187441D01*
X97426Y187189D01*
X96495Y186258D01*
X96495Y169342D01*
X97388Y168450D01*
X106490Y168450D01*
X106764Y168398D01*
X107020Y168235D01*
X107191Y167985D01*
X107252Y167688D01*
X107252Y111713D01*
X107200Y111438D01*
X107037Y111182D01*
X106787Y111011D01*
X106490Y110951D01*
X97388Y110951D01*
X96495Y110058D01*
X96495Y93142D01*
X97388Y92250D01*
X116927Y92250D01*
X117213Y92194D01*
X117466Y92026D01*
X140819Y68673D01*
X140977Y68442D01*
X141042Y68146D01*
X140987Y67848D01*
X140819Y67595D01*
X140576Y67351D01*
X140576Y66548D01*
X140524Y66273D01*
X140361Y66018D01*
X140111Y65846D01*
X139814Y65786D01*
X139587Y65786D01*
X139312Y65837D01*
X139056Y66001D01*
X138885Y66251D01*
X138825Y66548D01*
X138825Y67351D01*
X137932Y68244D01*
X131318Y68244D01*
X130426Y67351D01*
X130426Y59649D01*
X131318Y58756D01*
X137932Y58756D01*
X138825Y59649D01*
X138825Y60452D01*
X138876Y60727D01*
X139039Y60982D01*
X139289Y61154D01*
X139587Y61214D01*
X139814Y61214D01*
X140088Y61163D01*
X140344Y60999D01*
X140515Y60749D01*
X140576Y60452D01*
X140576Y59649D01*
X141468Y58756D01*
X148082Y58756D01*
X148975Y59649D01*
X148975Y60452D01*
X149026Y60727D01*
X149189Y60982D01*
X149439Y61154D01*
X149737Y61214D01*
X178838Y61214D01*
X179112Y61163D01*
X179368Y60999D01*
X179539Y60749D01*
X179600Y60452D01*
X179600Y56925D01*
X180492Y56033D01*
X199710Y56033D01*
X200603Y56925D01*
X200603Y70075D01*
X199710Y70968D01*
X180492Y70968D01*
X179600Y70075D01*
X179600Y66548D01*
X179548Y66273D01*
X179385Y66018D01*
X179135Y65846D01*
X178838Y65786D01*
X150488Y65786D01*
X150202Y65842D01*
X149949Y66009D01*
X149198Y66760D01*
X149035Y67002D01*
X148975Y67299D01*
X148975Y67351D01*
X148082Y68244D01*
X148030Y68244D01*
X147744Y68300D01*
X147491Y68467D01*
X123678Y92280D01*
X123520Y92510D01*
X123455Y92806D01*
X123463Y92849D01*
X123463Y110058D01*
X122570Y110951D01*
X112586Y110951D01*
X112311Y111002D01*
X112055Y111165D01*
X111884Y111415D01*
X111824Y111713D01*
X111824Y167688D01*
X111875Y167962D01*
X112038Y168218D01*
X112288Y168389D01*
X112586Y168450D01*
X122570Y168450D01*
X123463Y169342D01*
X123463Y186258D01*
X122570Y187151D01*
X105323Y187151D01*
X105037Y187206D01*
X104784Y187374D01*
X100934Y191224D01*
X100771Y191465D01*
X100711Y191763D01*
X100711Y231188D01*
X100762Y231462D01*
X100926Y231718D01*
X101176Y231889D01*
X101473Y231950D01*
X109870Y231950D01*
X110763Y232842D01*
X110763Y249758D01*
X110184Y250336D01*
X110026Y250567D01*
X109961Y250863D01*
X110017Y251161D01*
X110184Y251414D01*
X121349Y262578D01*
X121349Y299269D01*
X121400Y299543D01*
X121563Y299799D01*
X121813Y299970D01*
X122111Y300031D01*
X129583Y300031D01*
X130476Y300923D01*
X130476Y334077D01*
X129583Y334970D01*
X111442Y334970D01*
X111179Y335016D01*
X110921Y335176D01*
X110745Y335423D01*
X110680Y335719D01*
X110736Y336017D01*
X110903Y336270D01*
X131506Y356873D01*
X131725Y357026D01*
X132020Y357096D01*
X132319Y357045D01*
X132575Y356881D01*
X132746Y356631D01*
X132807Y356334D01*
X132807Y354990D01*
X135603Y352193D01*
X135766Y351951D01*
X135827Y351654D01*
X135827Y351478D01*
X362989Y124315D01*
X363140Y124102D01*
X363212Y123807D01*
X363163Y123508D01*
X363002Y123251D01*
X362753Y123077D01*
X362456Y123015D01*
X362159Y123073D01*
X360828Y123624D01*
X357118Y123624D01*
X353691Y122205D01*
X351068Y119582D01*
X349649Y116155D01*
X349649Y112445D01*
X351068Y109018D01*
X353691Y106396D01*
X357118Y104976D01*
X360828Y104976D01*
X364255Y106396D01*
X366877Y109018D01*
X367723Y111060D01*
X367863Y111281D01*
X368108Y111460D01*
X368403Y111530D01*
X368702Y111479D01*
X368957Y111316D01*
X369129Y111066D01*
X369189Y110768D01*
X369189Y73666D01*
X370719Y72135D01*
X370877Y71905D01*
X370942Y71609D01*
X370887Y71310D01*
X370719Y71058D01*
X370599Y70937D01*
X370599Y56063D01*
X371492Y55170D01*
X383900Y55170D01*
X384793Y56063D01*
X384793Y60452D01*
X384844Y60727D01*
X385008Y60982D01*
X385258Y61154D01*
X385555Y61214D01*
X392437Y61214D01*
X392723Y61158D01*
X392976Y60991D01*
X410216Y43752D01*
X612134Y43752D01*
X635499Y67116D01*
X635718Y67269D01*
X636013Y67339D01*
X636312Y67288D01*
X636568Y67124D01*
X636739Y66874D01*
X636800Y66577D01*
X636800Y56925D01*
X637692Y56033D01*
X656910Y56033D01*
X657803Y56925D01*
X657803Y70132D01*
X657854Y70407D01*
X658017Y70662D01*
X658267Y70834D01*
X658565Y70894D01*
X661220Y70894D01*
X661494Y70843D01*
X661750Y70679D01*
X661921Y70429D01*
X661982Y70132D01*
X661982Y64262D01*
X672737Y64262D01*
X672737Y71984D01*
X663939Y71984D01*
X663676Y72030D01*
X663418Y72190D01*
X663243Y72437D01*
X663178Y72733D01*
X663233Y73031D01*
X663401Y73284D01*
X664119Y74002D01*
X664119Y78398D01*
X661010Y81506D01*
X656615Y81506D01*
X653507Y78398D01*
X653507Y74443D01*
X653451Y74157D01*
X653283Y73904D01*
X650570Y71191D01*
X650329Y71028D01*
X650031Y70968D01*
X641190Y70968D01*
X640927Y71014D01*
X640669Y71174D01*
X640493Y71421D01*
X640428Y71717D01*
X640484Y72015D01*
X640651Y72268D01*
X654774Y86391D01*
X655015Y86554D01*
X655313Y86614D01*
X699538Y86614D01*
X699812Y86563D01*
X700068Y86399D01*
X700239Y86149D01*
X700300Y85852D01*
X700300Y82325D01*
X701192Y81433D01*
X720410Y81433D01*
X721303Y82325D01*
X721303Y95475D01*
X720410Y96368D01*
X701192Y96368D01*
X700300Y95475D01*
X700300Y91948D01*
X700248Y91673D01*
X700085Y91418D01*
X699835Y91246D01*
X699538Y91186D01*
X653471Y91186D01*
X653208Y91233D01*
X652950Y91392D01*
X652774Y91640D01*
X652709Y91936D01*
X652765Y92234D01*
X652932Y92487D01*
X710336Y149891D01*
X710578Y150054D01*
X710875Y150114D01*
X713401Y150114D01*
X713676Y150063D01*
X713931Y149899D01*
X714103Y149649D01*
X714163Y149352D01*
X714163Y145825D01*
X715056Y144933D01*
X734273Y144933D01*
X735166Y145825D01*
X735166Y158975D01*
X734273Y159868D01*
X726948Y159868D01*
X726673Y159919D01*
X726418Y160082D01*
X726246Y160332D01*
X726186Y160630D01*
X726186Y207671D01*
X726237Y207945D01*
X726401Y208201D01*
X726651Y208372D01*
X726948Y208433D01*
X733110Y208433D01*
X734003Y209325D01*
X734003Y222475D01*
X733110Y223368D01*
X726948Y223368D01*
X726673Y223419D01*
X726418Y223582D01*
X726246Y223832D01*
X726186Y224130D01*
X726186Y229671D01*
X726233Y229934D01*
X726392Y230192D01*
X726640Y230367D01*
X726936Y230432D01*
X727234Y230377D01*
X727487Y230209D01*
X728052Y229644D01*
X732007Y229644D01*
X732293Y229588D01*
X732546Y229421D01*
X738974Y222993D01*
X739137Y222751D01*
X739198Y222454D01*
X739198Y209325D01*
X740090Y208433D01*
X759078Y208433D01*
X759353Y208381D01*
X759608Y208218D01*
X759780Y207968D01*
X759840Y207671D01*
X759840Y161646D01*
X759789Y161371D01*
X759625Y161115D01*
X759375Y160944D01*
X759078Y160884D01*
X751625Y160884D01*
X751625Y143917D01*
X759078Y143917D01*
X759353Y143865D01*
X759608Y143702D01*
X759780Y143452D01*
X759840Y143155D01*
X759840Y100000D01*
X759835Y99915D01*
X758354Y86769D01*
X758316Y86602D01*
X753947Y74115D01*
X753873Y73962D01*
X746834Y62760D01*
X746728Y62627D01*
X737373Y53272D01*
X737240Y53166D01*
X726038Y46127D01*
X725885Y46053D01*
X713398Y41684D01*
X713231Y41646D01*
X700085Y40165D01*
G37*
%LPC*%
G36*
X117187Y445310D02*
X126888Y445310D01*
X126888Y450088D01*
X115260Y450088D01*
X115260Y447237D01*
X117187Y445310D01*
G37*
G36*
X117187Y419910D02*
X126888Y419910D01*
X126888Y424688D01*
X115260Y424688D01*
X115260Y421837D01*
X117187Y419910D01*
G37*
G36*
X46309Y341262D02*
X57388Y341262D01*
X57388Y347530D01*
X47796Y347530D01*
X46309Y346042D01*
X46309Y341262D01*
G37*
G36*
X47796Y333471D02*
X57388Y333471D01*
X57388Y339738D01*
X46309Y339738D01*
X46309Y334958D01*
X47796Y333471D01*
G37*
G36*
X55883Y242062D02*
X69621Y242062D01*
X69621Y250179D01*
X68133Y251667D01*
X55883Y251667D01*
X55883Y242062D01*
G37*
G36*
X55230Y168450D02*
X80412Y168450D01*
X81305Y169342D01*
X81305Y186258D01*
X80412Y187151D01*
X71311Y187151D01*
X71036Y187202D01*
X70780Y187365D01*
X70609Y187615D01*
X70549Y187913D01*
X70549Y221479D01*
X70604Y221765D01*
X70772Y222018D01*
X73569Y224815D01*
X73569Y229210D01*
X70460Y232319D01*
X70383Y232319D01*
X70108Y232370D01*
X69853Y232533D01*
X69681Y232783D01*
X69621Y233081D01*
X69621Y240538D01*
X55883Y240538D01*
X55883Y230934D01*
X62840Y230934D01*
X63103Y230887D01*
X63361Y230727D01*
X63537Y230480D01*
X63602Y230184D01*
X63546Y229886D01*
X63379Y229633D01*
X62957Y229210D01*
X62957Y224815D01*
X65753Y222018D01*
X65916Y221776D01*
X65977Y221479D01*
X65977Y187913D01*
X65925Y187638D01*
X65762Y187382D01*
X65512Y187211D01*
X65215Y187151D01*
X55230Y187151D01*
X54337Y186258D01*
X54337Y169342D01*
X55230Y168450D01*
G37*
G36*
X739345Y153162D02*
X750101Y153162D01*
X750101Y160884D01*
X740833Y160884D01*
X739345Y159396D01*
X739345Y153162D01*
G37*
G36*
X740833Y143917D02*
X750101Y143917D01*
X750101Y151638D01*
X739345Y151638D01*
X739345Y145404D01*
X740833Y143917D01*
G37*
G36*
X331718Y104976D02*
X335428Y104976D01*
X338855Y106396D01*
X341477Y109018D01*
X342897Y112445D01*
X342897Y116155D01*
X341477Y119582D01*
X338855Y122205D01*
X335428Y123624D01*
X331718Y123624D01*
X328291Y122205D01*
X325668Y119582D01*
X324249Y116155D01*
X324249Y112445D01*
X325668Y109018D01*
X328291Y106396D01*
X331718Y104976D01*
G37*
G36*
X280918Y104976D02*
X284628Y104976D01*
X288055Y106396D01*
X290677Y109018D01*
X292097Y112445D01*
X292097Y116155D01*
X290677Y119582D01*
X288055Y122205D01*
X284628Y123624D01*
X280918Y123624D01*
X277491Y122205D01*
X274868Y119582D01*
X273449Y116155D01*
X273449Y112445D01*
X274868Y109018D01*
X277491Y106396D01*
X280918Y104976D01*
G37*
G36*
X306318Y104976D02*
X310028Y104976D01*
X313455Y106396D01*
X316077Y109018D01*
X317497Y112445D01*
X317497Y116155D01*
X316077Y119582D01*
X313455Y122205D01*
X310028Y123624D01*
X306318Y123624D01*
X302891Y122205D01*
X300268Y119582D01*
X298849Y116155D01*
X298849Y112445D01*
X300268Y109018D01*
X302891Y106396D01*
X306318Y104976D01*
G37*
G36*
X255518Y104976D02*
X259228Y104976D01*
X262655Y106396D01*
X265277Y109018D01*
X266697Y112445D01*
X266697Y116155D01*
X265277Y119582D01*
X262655Y122205D01*
X259228Y123624D01*
X255518Y123624D01*
X252091Y122205D01*
X249468Y119582D01*
X248049Y116155D01*
X248049Y112445D01*
X249468Y109018D01*
X252091Y106396D01*
X255518Y104976D01*
G37*
G36*
X204718Y104976D02*
X208428Y104976D01*
X211855Y106396D01*
X214477Y109018D01*
X215897Y112445D01*
X215897Y116155D01*
X214477Y119582D01*
X211855Y122205D01*
X208428Y123624D01*
X204718Y123624D01*
X201291Y122205D01*
X198668Y119582D01*
X197249Y116155D01*
X197249Y112445D01*
X198668Y109018D01*
X201291Y106396D01*
X204718Y104976D01*
G37*
G36*
X179318Y104976D02*
X183028Y104976D01*
X186455Y106396D01*
X189077Y109018D01*
X190497Y112445D01*
X190497Y116155D01*
X189077Y119582D01*
X186455Y122205D01*
X183028Y123624D01*
X179318Y123624D01*
X175891Y122205D01*
X173268Y119582D01*
X171849Y116155D01*
X171849Y112445D01*
X173268Y109018D01*
X175891Y106396D01*
X179318Y104976D01*
G37*
G36*
X153918Y104976D02*
X157628Y104976D01*
X161055Y106396D01*
X163677Y109018D01*
X165097Y112445D01*
X165097Y116155D01*
X163677Y119582D01*
X161055Y122205D01*
X157628Y123624D01*
X153918Y123624D01*
X150491Y122205D01*
X147868Y119582D01*
X146449Y116155D01*
X146449Y112445D01*
X147868Y109018D01*
X150491Y106396D01*
X153918Y104976D01*
G37*
G36*
X230118Y104976D02*
X233828Y104976D01*
X237255Y106396D01*
X239877Y109018D01*
X241297Y112445D01*
X241297Y116155D01*
X239877Y119582D01*
X237255Y122205D01*
X233828Y123624D01*
X230118Y123624D01*
X226691Y122205D01*
X224068Y119582D01*
X222649Y116155D01*
X222649Y112445D01*
X224068Y109018D01*
X226691Y106396D01*
X230118Y104976D01*
G37*
G36*
X68583Y102362D02*
X82321Y102362D01*
X82321Y110479D01*
X80833Y111967D01*
X68583Y111967D01*
X68583Y102362D01*
G37*
G36*
X53321Y102362D02*
X67059Y102362D01*
X67059Y111967D01*
X54809Y111967D01*
X53321Y110479D01*
X53321Y102362D01*
G37*
G36*
X54809Y91234D02*
X67059Y91234D01*
X67059Y100838D01*
X53321Y100838D01*
X53321Y92721D01*
X54809Y91234D01*
G37*
G36*
X68583Y91234D02*
X80833Y91234D01*
X82321Y92721D01*
X82321Y100838D01*
X68583Y100838D01*
X68583Y91234D01*
G37*
G36*
X725482Y89662D02*
X736237Y89662D01*
X736237Y97384D01*
X726969Y97384D01*
X725482Y95896D01*
X725482Y89662D01*
G37*
G36*
X737761Y89662D02*
X748517Y89662D01*
X748517Y95896D01*
X747029Y97384D01*
X737761Y97384D01*
X737761Y89662D01*
G37*
G36*
X321310Y57417D02*
X328690Y57417D01*
X329583Y58310D01*
X329583Y68859D01*
X329639Y69145D01*
X329806Y69398D01*
X343779Y83371D01*
X344020Y83534D01*
X344318Y83594D01*
X348273Y83594D01*
X351381Y86702D01*
X351381Y91098D01*
X348273Y94206D01*
X343877Y94206D01*
X340769Y91098D01*
X340769Y87143D01*
X340713Y86857D01*
X340546Y86604D01*
X323748Y69806D01*
X323507Y69643D01*
X323209Y69583D01*
X321310Y69583D01*
X320417Y68690D01*
X320417Y58310D01*
X321310Y57417D01*
G37*
G36*
X737761Y80417D02*
X747029Y80417D01*
X748517Y81904D01*
X748517Y88138D01*
X737761Y88138D01*
X737761Y80417D01*
G37*
G36*
X726969Y80417D02*
X736237Y80417D01*
X736237Y88138D01*
X725482Y88138D01*
X725482Y81904D01*
X726969Y80417D01*
G37*
G36*
X674261Y64262D02*
X685017Y64262D01*
X685017Y70496D01*
X683529Y71984D01*
X674261Y71984D01*
X674261Y64262D01*
G37*
G36*
X204782Y64262D02*
X215537Y64262D01*
X215537Y71984D01*
X206269Y71984D01*
X204782Y70496D01*
X204782Y64262D01*
G37*
G36*
X217061Y64262D02*
X227817Y64262D01*
X227817Y70496D01*
X226329Y71984D01*
X217061Y71984D01*
X217061Y64262D01*
G37*
G36*
X304401Y64262D02*
X309238Y64262D01*
X309238Y70599D01*
X305889Y70599D01*
X304401Y69111D01*
X304401Y64262D01*
G37*
G36*
X310762Y64262D02*
X315599Y64262D01*
X315599Y69111D01*
X314111Y70599D01*
X310762Y70599D01*
X310762Y64262D01*
G37*
G36*
X674261Y55017D02*
X683529Y55017D01*
X685017Y56504D01*
X685017Y62738D01*
X674261Y62738D01*
X674261Y55017D01*
G37*
G36*
X663469Y55017D02*
X672737Y55017D01*
X672737Y62738D01*
X661982Y62738D01*
X661982Y56504D01*
X663469Y55017D01*
G37*
G36*
X310762Y56401D02*
X314111Y56401D01*
X315599Y57889D01*
X315599Y62738D01*
X310762Y62738D01*
X310762Y56401D01*
G37*
G36*
X305889Y56401D02*
X309238Y56401D01*
X309238Y62738D01*
X304401Y62738D01*
X304401Y57889D01*
X305889Y56401D01*
G37*
G36*
X217061Y55017D02*
X226329Y55017D01*
X227817Y56504D01*
X227817Y62738D01*
X217061Y62738D01*
X217061Y55017D01*
G37*
G36*
X206269Y55017D02*
X215537Y55017D01*
X215537Y62738D01*
X204782Y62738D01*
X204782Y56504D01*
X206269Y55017D01*
G37*
%LPD*%
G36*
X142912Y374812D02*
X142617Y374742D01*
X142318Y374793D01*
X142063Y374956D01*
X141891Y375206D01*
X141831Y375504D01*
X141831Y376407D01*
X141887Y376693D01*
X142054Y376946D01*
X173111Y408003D01*
X173352Y408166D01*
X173650Y408226D01*
X178775Y408226D01*
X179061Y408170D01*
X179314Y408003D01*
X180028Y407289D01*
X253359Y407289D01*
X262661Y416591D01*
X262903Y416754D01*
X263200Y416814D01*
X267738Y416814D01*
X268012Y416763D01*
X268268Y416599D01*
X268439Y416349D01*
X268500Y416052D01*
X268500Y412525D01*
X269392Y411633D01*
X281731Y411633D01*
X282017Y411577D01*
X282270Y411409D01*
X284983Y408696D01*
X285146Y408455D01*
X285207Y408157D01*
X285207Y404202D01*
X288315Y401094D01*
X292710Y401094D01*
X295819Y404202D01*
X295819Y408598D01*
X295101Y409316D01*
X294948Y409535D01*
X294878Y409830D01*
X294929Y410129D01*
X295092Y410385D01*
X295342Y410556D01*
X295639Y410617D01*
X304437Y410617D01*
X304437Y418338D01*
X293682Y418338D01*
X293682Y412468D01*
X293630Y412193D01*
X293467Y411938D01*
X293217Y411766D01*
X292920Y411706D01*
X290265Y411706D01*
X289990Y411757D01*
X289734Y411921D01*
X289563Y412171D01*
X289503Y412468D01*
X289503Y425675D01*
X288610Y426568D01*
X269392Y426568D01*
X268500Y425675D01*
X268500Y422148D01*
X268448Y421873D01*
X268285Y421618D01*
X268035Y421446D01*
X267738Y421386D01*
X260991Y421386D01*
X254684Y415079D01*
X254464Y414926D01*
X254169Y414856D01*
X253870Y414907D01*
X253615Y415071D01*
X253443Y415321D01*
X253383Y415618D01*
X253383Y418109D01*
X253439Y418395D01*
X253606Y418648D01*
X267579Y432621D01*
X267820Y432784D01*
X268118Y432844D01*
X272073Y432844D01*
X275181Y435952D01*
X275181Y440348D01*
X272073Y443456D01*
X267677Y443456D01*
X264569Y440348D01*
X264569Y436393D01*
X264513Y436107D01*
X264346Y435854D01*
X253622Y425129D01*
X253391Y424971D01*
X253095Y424906D01*
X252797Y424962D01*
X252544Y425129D01*
X252490Y425183D01*
X245110Y425183D01*
X244217Y424290D01*
X244217Y413910D01*
X244965Y413162D01*
X245118Y412942D01*
X245188Y412647D01*
X245137Y412348D01*
X244973Y412093D01*
X244723Y411921D01*
X244426Y411861D01*
X239611Y411861D01*
X239347Y411908D01*
X239089Y412067D01*
X238914Y412315D01*
X238849Y412611D01*
X238904Y412909D01*
X239072Y413162D01*
X239399Y413489D01*
X239399Y418338D01*
X228201Y418338D01*
X228201Y413489D01*
X228528Y413162D01*
X228681Y412942D01*
X228751Y412647D01*
X228700Y412348D01*
X228537Y412093D01*
X228287Y411921D01*
X227989Y411861D01*
X189286Y411861D01*
X189011Y411912D01*
X188756Y412076D01*
X188584Y412326D01*
X188524Y412623D01*
X188524Y415942D01*
X187192Y417274D01*
X167767Y417274D01*
X167492Y417325D01*
X167237Y417489D01*
X167065Y417739D01*
X167005Y418036D01*
X167005Y420164D01*
X167056Y420439D01*
X167220Y420694D01*
X167470Y420866D01*
X167767Y420926D01*
X187192Y420926D01*
X188524Y422258D01*
X188524Y423100D01*
X188580Y423386D01*
X188747Y423639D01*
X191379Y426271D01*
X191620Y426434D01*
X191918Y426494D01*
X195873Y426494D01*
X198981Y429602D01*
X198981Y433998D01*
X195873Y437106D01*
X191354Y437106D01*
X191090Y437153D01*
X190832Y437312D01*
X190657Y437560D01*
X190592Y437856D01*
X190647Y438154D01*
X190815Y438407D01*
X191379Y438971D01*
X191620Y439134D01*
X191918Y439194D01*
X195873Y439194D01*
X198981Y442302D01*
X198981Y446698D01*
X195873Y449806D01*
X191477Y449806D01*
X190841Y449170D01*
X190621Y449017D01*
X190326Y448947D01*
X190027Y448998D01*
X189772Y449161D01*
X189600Y449411D01*
X189540Y449708D01*
X189540Y450088D01*
X177912Y450088D01*
X177912Y445310D01*
X187607Y445310D01*
X187882Y445259D01*
X188137Y445095D01*
X188309Y444845D01*
X188369Y444548D01*
X188369Y443337D01*
X188322Y443073D01*
X188163Y442815D01*
X187915Y442640D01*
X187619Y442575D01*
X187321Y442630D01*
X187255Y442674D01*
X167767Y442674D01*
X167492Y442725D01*
X167237Y442889D01*
X167065Y443139D01*
X167005Y443436D01*
X167005Y444548D01*
X167056Y444823D01*
X167220Y445078D01*
X167470Y445250D01*
X167767Y445310D01*
X176388Y445310D01*
X176388Y451612D01*
X189540Y451612D01*
X189540Y454152D01*
X189591Y454427D01*
X189755Y454682D01*
X190005Y454854D01*
X190302Y454914D01*
X336875Y454914D01*
X337161Y454858D01*
X337414Y454691D01*
X353416Y438689D01*
X353574Y438458D01*
X353639Y438162D01*
X353583Y437864D01*
X353416Y437611D01*
X352572Y436767D01*
X352330Y436604D01*
X352033Y436544D01*
X347218Y436544D01*
X346326Y435651D01*
X346326Y427949D01*
X347218Y427056D01*
X353832Y427056D01*
X354725Y427949D01*
X354725Y432138D01*
X354780Y432424D01*
X354948Y432677D01*
X355175Y432904D01*
X355394Y433057D01*
X355689Y433127D01*
X355988Y433076D01*
X356244Y432913D01*
X356415Y432663D01*
X356476Y432365D01*
X356476Y427949D01*
X357368Y427056D01*
X358902Y427056D01*
X359177Y427005D01*
X359432Y426841D01*
X359604Y426591D01*
X359664Y426294D01*
X359664Y395161D01*
X359613Y394886D01*
X359449Y394630D01*
X359199Y394459D01*
X358902Y394399D01*
X162566Y394399D01*
X143132Y374965D01*
X142912Y374812D01*
G37*
%LPC*%
G36*
X293682Y419862D02*
X304437Y419862D01*
X304437Y427584D01*
X295169Y427584D01*
X293682Y426096D01*
X293682Y419862D01*
G37*
G36*
X305961Y419862D02*
X316717Y419862D01*
X316717Y426096D01*
X315229Y427584D01*
X305961Y427584D01*
X305961Y419862D01*
G37*
G36*
X228201Y419862D02*
X233038Y419862D01*
X233038Y426199D01*
X229689Y426199D01*
X228201Y424711D01*
X228201Y419862D01*
G37*
G36*
X234562Y419862D02*
X239399Y419862D01*
X239399Y424711D01*
X237911Y426199D01*
X234562Y426199D01*
X234562Y419862D01*
G37*
G36*
X305961Y410617D02*
X315229Y410617D01*
X316717Y412104D01*
X316717Y418338D01*
X305961Y418338D01*
X305961Y410617D01*
G37*
%LPD*%
G36*
X546976Y48384D02*
X546679Y48324D01*
X412425Y48324D01*
X412139Y48379D01*
X411886Y48547D01*
X407580Y52853D01*
X407427Y53073D01*
X407357Y53368D01*
X407408Y53667D01*
X407571Y53922D01*
X407821Y54094D01*
X408119Y54154D01*
X408942Y54154D01*
X408942Y62738D01*
X401591Y62738D01*
X401591Y60682D01*
X401544Y60418D01*
X401385Y60160D01*
X401137Y59985D01*
X400841Y59920D01*
X400543Y59975D01*
X400290Y60143D01*
X394647Y65786D01*
X385555Y65786D01*
X385280Y65837D01*
X385025Y66001D01*
X384853Y66251D01*
X384793Y66548D01*
X384793Y70937D01*
X383900Y71830D01*
X377806Y71830D01*
X377520Y71886D01*
X377267Y72053D01*
X373984Y75336D01*
X373821Y75578D01*
X373761Y75875D01*
X373761Y111724D01*
X373806Y111981D01*
X373963Y112241D01*
X374209Y112418D01*
X374505Y112486D01*
X374803Y112432D01*
X375058Y112267D01*
X375227Y112015D01*
X376468Y109018D01*
X379091Y106396D01*
X382518Y104976D01*
X386228Y104976D01*
X389655Y106396D01*
X392277Y109018D01*
X393697Y112445D01*
X393697Y116155D01*
X392277Y119582D01*
X389655Y122205D01*
X386228Y123624D01*
X382518Y123624D01*
X379091Y122205D01*
X376468Y119582D01*
X375227Y116585D01*
X375087Y116364D01*
X374842Y116184D01*
X374547Y116115D01*
X374248Y116166D01*
X373993Y116329D01*
X373821Y116579D01*
X373761Y116876D01*
X373761Y120009D01*
X372199Y121572D01*
X141638Y352132D01*
X141480Y352362D01*
X141415Y352659D01*
X141471Y352957D01*
X141638Y353210D01*
X143419Y354990D01*
X143419Y359385D01*
X140310Y362494D01*
X138966Y362494D01*
X138703Y362540D01*
X138445Y362700D01*
X138269Y362947D01*
X138204Y363243D01*
X138260Y363541D01*
X138427Y363794D01*
X145148Y370515D01*
X145367Y370668D01*
X145663Y370738D01*
X145962Y370687D01*
X146217Y370524D01*
X146389Y370274D01*
X146449Y369976D01*
X146449Y366445D01*
X147868Y363018D01*
X150491Y360396D01*
X153918Y358976D01*
X157628Y358976D01*
X161055Y360396D01*
X163677Y363018D01*
X165097Y366445D01*
X165097Y370155D01*
X163677Y373582D01*
X161055Y376205D01*
X157628Y377624D01*
X154097Y377624D01*
X153833Y377671D01*
X153575Y377830D01*
X153400Y378078D01*
X153335Y378374D01*
X153390Y378672D01*
X153558Y378925D01*
X164236Y389603D01*
X164478Y389766D01*
X164775Y389827D01*
X360687Y389827D01*
X360973Y389771D01*
X361226Y389603D01*
X376337Y374493D01*
X376497Y374257D01*
X376560Y373960D01*
X376502Y373663D01*
X375049Y370155D01*
X375049Y366445D01*
X376468Y363018D01*
X379091Y360396D01*
X382518Y358976D01*
X386228Y358976D01*
X389655Y360396D01*
X392277Y363018D01*
X393697Y366445D01*
X393697Y370155D01*
X393058Y371697D01*
X393000Y371977D01*
X393056Y372275D01*
X393223Y372528D01*
X447528Y426833D01*
X447770Y426996D01*
X448067Y427056D01*
X452882Y427056D01*
X453775Y427949D01*
X453775Y428752D01*
X453826Y429027D01*
X453989Y429282D01*
X454239Y429454D01*
X454537Y429514D01*
X455937Y429514D01*
X456223Y429458D01*
X456476Y429291D01*
X464191Y421577D01*
X548012Y421577D01*
X548298Y421521D01*
X548551Y421353D01*
X548960Y420944D01*
X549113Y420725D01*
X549183Y420430D01*
X549132Y420131D01*
X548969Y419875D01*
X548719Y419704D01*
X548421Y419644D01*
X545490Y419644D01*
X542382Y416535D01*
X542382Y412140D01*
X545178Y409343D01*
X545341Y409101D01*
X545402Y408804D01*
X545402Y374697D01*
X545355Y374434D01*
X545195Y374176D01*
X544948Y374000D01*
X544652Y373935D01*
X544354Y373991D01*
X544101Y374158D01*
X542055Y376205D01*
X538628Y377624D01*
X534918Y377624D01*
X531491Y376205D01*
X528868Y373582D01*
X527449Y370155D01*
X527449Y366445D01*
X528868Y363018D01*
X531491Y360396D01*
X534918Y358976D01*
X538628Y358976D01*
X542055Y360396D01*
X544101Y362442D01*
X544320Y362595D01*
X544615Y362665D01*
X544914Y362614D01*
X545170Y362450D01*
X545341Y362200D01*
X545402Y361903D01*
X545402Y326208D01*
X545346Y325922D01*
X545178Y325670D01*
X542382Y322873D01*
X542382Y318477D01*
X545490Y315369D01*
X549885Y315369D01*
X552994Y318477D01*
X552994Y322873D01*
X550197Y325670D01*
X550034Y325911D01*
X549974Y326208D01*
X549974Y408804D01*
X550029Y409090D01*
X550197Y409343D01*
X552994Y412140D01*
X552994Y415071D01*
X553040Y415335D01*
X553200Y415593D01*
X553447Y415768D01*
X553743Y415833D01*
X554041Y415778D01*
X554294Y415610D01*
X591589Y378315D01*
X591740Y378102D01*
X591812Y377807D01*
X591763Y377508D01*
X591602Y377251D01*
X591353Y377077D01*
X591056Y377015D01*
X590759Y377073D01*
X589428Y377624D01*
X585718Y377624D01*
X582291Y376205D01*
X579668Y373582D01*
X578249Y370155D01*
X578249Y366445D01*
X579668Y363018D01*
X582291Y360396D01*
X585718Y358976D01*
X589428Y358976D01*
X592855Y360396D01*
X595477Y363018D01*
X596897Y366445D01*
X596897Y370155D01*
X596345Y371486D01*
X596288Y371741D01*
X596334Y372041D01*
X596494Y372299D01*
X596741Y372474D01*
X597037Y372539D01*
X597335Y372484D01*
X597588Y372316D01*
X599128Y370777D01*
X602887Y370777D01*
X603162Y370725D01*
X603417Y370562D01*
X603589Y370312D01*
X603649Y370015D01*
X603649Y359869D01*
X604542Y358976D01*
X621404Y358976D01*
X622297Y359869D01*
X622297Y376742D01*
X622161Y376939D01*
X622096Y377235D01*
X622152Y377534D01*
X622319Y377786D01*
X635699Y391166D01*
X635699Y410871D01*
X635750Y411145D01*
X635913Y411401D01*
X636163Y411572D01*
X636461Y411633D01*
X644210Y411633D01*
X645103Y412525D01*
X645103Y425675D01*
X644210Y426568D01*
X624992Y426568D01*
X624100Y425675D01*
X624100Y412525D01*
X624992Y411633D01*
X630365Y411633D01*
X630639Y411581D01*
X630895Y411418D01*
X631066Y411168D01*
X631127Y410871D01*
X631127Y393375D01*
X631071Y393089D01*
X630903Y392836D01*
X615914Y377847D01*
X615673Y377684D01*
X615375Y377624D01*
X604542Y377624D01*
X603649Y376731D01*
X603649Y376111D01*
X603598Y375836D01*
X603434Y375580D01*
X603184Y375409D01*
X602887Y375349D01*
X601338Y375349D01*
X601052Y375404D01*
X600799Y375572D01*
X557527Y418843D01*
X557374Y419063D01*
X557304Y419358D01*
X557355Y419657D01*
X557519Y419912D01*
X557769Y420084D01*
X558066Y420144D01*
X560998Y420144D01*
X564106Y423252D01*
X564106Y426294D01*
X564157Y426569D01*
X564321Y426824D01*
X564571Y426996D01*
X564868Y427056D01*
X569732Y427056D01*
X570625Y427949D01*
X570625Y432365D01*
X570671Y432629D01*
X570831Y432887D01*
X571078Y433062D01*
X571374Y433127D01*
X571672Y433072D01*
X571925Y432904D01*
X572152Y432677D01*
X572315Y432436D01*
X572376Y432138D01*
X572376Y427949D01*
X573268Y427056D01*
X579882Y427056D01*
X580775Y427949D01*
X580775Y435651D01*
X579882Y436544D01*
X575067Y436544D01*
X574781Y436600D01*
X574528Y436767D01*
X572267Y439029D01*
X572104Y439270D01*
X572044Y439568D01*
X572044Y443523D01*
X568935Y446631D01*
X564540Y446631D01*
X561432Y443523D01*
X561432Y439127D01*
X563028Y437531D01*
X563186Y437301D01*
X563251Y437004D01*
X563195Y436706D01*
X563028Y436453D01*
X562226Y435651D01*
X562226Y432424D01*
X562170Y432138D01*
X562002Y431885D01*
X561096Y430979D01*
X560855Y430816D01*
X560557Y430756D01*
X556602Y430756D01*
X553494Y427648D01*
X553494Y424716D01*
X553447Y424453D01*
X553288Y424195D01*
X553040Y424019D01*
X552744Y423954D01*
X552446Y424010D01*
X552193Y424177D01*
X550222Y426149D01*
X542714Y426149D01*
X542451Y426195D01*
X542193Y426355D01*
X542017Y426602D01*
X541952Y426898D01*
X542008Y427196D01*
X542175Y427449D01*
X542675Y427949D01*
X542675Y435651D01*
X541872Y436453D01*
X541714Y436684D01*
X541649Y436980D01*
X541705Y437278D01*
X541872Y437531D01*
X543469Y439127D01*
X543469Y443523D01*
X540360Y446631D01*
X535965Y446631D01*
X532857Y443523D01*
X532857Y439127D01*
X534765Y437219D01*
X534923Y436988D01*
X534988Y436692D01*
X534933Y436394D01*
X534765Y436141D01*
X534276Y435651D01*
X534276Y427949D01*
X534775Y427449D01*
X534928Y427230D01*
X534998Y426935D01*
X534947Y426636D01*
X534783Y426380D01*
X534533Y426209D01*
X534236Y426149D01*
X532564Y426149D01*
X532301Y426195D01*
X532043Y426355D01*
X531867Y426602D01*
X531802Y426898D01*
X531858Y427196D01*
X532025Y427449D01*
X532525Y427949D01*
X532525Y435651D01*
X531632Y436544D01*
X526768Y436544D01*
X526493Y436595D01*
X526238Y436759D01*
X526066Y437009D01*
X526006Y437306D01*
X526006Y440348D01*
X522898Y443456D01*
X518502Y443456D01*
X515394Y440348D01*
X515394Y435952D01*
X518502Y432844D01*
X522457Y432844D01*
X522743Y432788D01*
X522996Y432621D01*
X523902Y431715D01*
X524065Y431473D01*
X524126Y431176D01*
X524126Y427949D01*
X524625Y427449D01*
X524778Y427230D01*
X524848Y426935D01*
X524797Y426636D01*
X524633Y426380D01*
X524383Y426209D01*
X524086Y426149D01*
X491914Y426149D01*
X491651Y426195D01*
X491393Y426355D01*
X491217Y426602D01*
X491152Y426898D01*
X491208Y427196D01*
X491375Y427449D01*
X491875Y427949D01*
X491875Y435651D01*
X490982Y436544D01*
X484479Y436544D01*
X484216Y436591D01*
X483958Y436750D01*
X483782Y436998D01*
X483717Y437294D01*
X483773Y437592D01*
X483940Y437845D01*
X494436Y448341D01*
X494678Y448504D01*
X494975Y448564D01*
X649612Y448564D01*
X649898Y448508D01*
X650151Y448341D01*
X669608Y428884D01*
X669761Y428665D01*
X669831Y428370D01*
X669780Y428071D01*
X669616Y427815D01*
X669366Y427644D01*
X669069Y427584D01*
X661561Y427584D01*
X661561Y419862D01*
X672317Y419862D01*
X672317Y424336D01*
X672363Y424599D01*
X672523Y424857D01*
X672770Y425033D01*
X673066Y425098D01*
X673364Y425042D01*
X673617Y424875D01*
X676916Y421577D01*
X687966Y421577D01*
X688230Y421530D01*
X688488Y421370D01*
X688663Y421123D01*
X688728Y420827D01*
X688673Y420529D01*
X688505Y420276D01*
X561277Y293047D01*
X561277Y124386D01*
X561225Y124111D01*
X561062Y123856D01*
X560812Y123684D01*
X560515Y123624D01*
X560318Y123624D01*
X556891Y122205D01*
X554268Y119582D01*
X552849Y116155D01*
X552849Y112445D01*
X554268Y109018D01*
X554703Y108583D01*
X554866Y108342D01*
X554927Y108045D01*
X554927Y74636D01*
X554875Y74361D01*
X554712Y74106D01*
X554462Y73934D01*
X554165Y73874D01*
X553100Y73874D01*
X551417Y72190D01*
X551417Y69810D01*
X552187Y69039D01*
X552345Y68808D01*
X552410Y68512D01*
X552355Y68214D01*
X552187Y67961D01*
X551417Y67190D01*
X551417Y64810D01*
X552187Y64039D01*
X552345Y63808D01*
X552410Y63512D01*
X552355Y63214D01*
X552187Y62961D01*
X552060Y62834D01*
X551819Y62671D01*
X551521Y62611D01*
X517925Y62611D01*
X517650Y62662D01*
X517395Y62826D01*
X517223Y63076D01*
X517163Y63373D01*
X517163Y71958D01*
X516270Y72851D01*
X491088Y72851D01*
X490195Y71958D01*
X490195Y55042D01*
X491088Y54150D01*
X516270Y54150D01*
X517163Y55042D01*
X517163Y57277D01*
X517214Y57552D01*
X517378Y57807D01*
X517628Y57979D01*
X517925Y58039D01*
X538487Y58039D01*
X538773Y57983D01*
X539026Y57816D01*
X547218Y49624D01*
X547371Y49405D01*
X547441Y49110D01*
X547390Y48811D01*
X547226Y48555D01*
X546976Y48384D01*
G37*
%LPC*%
G36*
X649282Y419862D02*
X660037Y419862D01*
X660037Y427584D01*
X650769Y427584D01*
X649282Y426096D01*
X649282Y419862D01*
G37*
G36*
X650769Y410617D02*
X660037Y410617D01*
X660037Y418338D01*
X649282Y418338D01*
X649282Y412104D01*
X650769Y410617D01*
G37*
G36*
X661561Y410617D02*
X670829Y410617D01*
X672317Y412104D01*
X672317Y418338D01*
X661561Y418338D01*
X661561Y410617D01*
G37*
G36*
X283535Y369062D02*
X293113Y369062D01*
X293113Y370357D01*
X291539Y374157D01*
X288630Y377066D01*
X284830Y378640D01*
X283535Y378640D01*
X283535Y369062D01*
G37*
G36*
X272433Y369062D02*
X282011Y369062D01*
X282011Y378640D01*
X280716Y378640D01*
X276916Y377066D01*
X274007Y374157D01*
X272433Y370357D01*
X272433Y369062D01*
G37*
G36*
X204718Y358976D02*
X208428Y358976D01*
X211855Y360396D01*
X214477Y363018D01*
X215897Y366445D01*
X215897Y370155D01*
X214477Y373582D01*
X211855Y376205D01*
X208428Y377624D01*
X204718Y377624D01*
X201291Y376205D01*
X198668Y373582D01*
X197249Y370155D01*
X197249Y366445D01*
X198668Y363018D01*
X201291Y360396D01*
X204718Y358976D01*
G37*
G36*
X179318Y358976D02*
X183028Y358976D01*
X186455Y360396D01*
X189077Y363018D01*
X190497Y366445D01*
X190497Y370155D01*
X189077Y373582D01*
X186455Y376205D01*
X183028Y377624D01*
X179318Y377624D01*
X175891Y376205D01*
X173268Y373582D01*
X171849Y370155D01*
X171849Y366445D01*
X173268Y363018D01*
X175891Y360396D01*
X179318Y358976D01*
G37*
G36*
X433318Y358976D02*
X437028Y358976D01*
X440455Y360396D01*
X443077Y363018D01*
X444497Y366445D01*
X444497Y370155D01*
X443077Y373582D01*
X440455Y376205D01*
X437028Y377624D01*
X433318Y377624D01*
X429891Y376205D01*
X427268Y373582D01*
X425849Y370155D01*
X425849Y366445D01*
X427268Y363018D01*
X429891Y360396D01*
X433318Y358976D01*
G37*
G36*
X407918Y358976D02*
X411628Y358976D01*
X415055Y360396D01*
X417677Y363018D01*
X419097Y366445D01*
X419097Y370155D01*
X417677Y373582D01*
X415055Y376205D01*
X411628Y377624D01*
X407918Y377624D01*
X404491Y376205D01*
X401868Y373582D01*
X400449Y370155D01*
X400449Y366445D01*
X401868Y363018D01*
X404491Y360396D01*
X407918Y358976D01*
G37*
G36*
X357118Y358976D02*
X360828Y358976D01*
X364255Y360396D01*
X366877Y363018D01*
X368297Y366445D01*
X368297Y370155D01*
X366877Y373582D01*
X364255Y376205D01*
X360828Y377624D01*
X357118Y377624D01*
X353691Y376205D01*
X351068Y373582D01*
X349649Y370155D01*
X349649Y366445D01*
X351068Y363018D01*
X353691Y360396D01*
X357118Y358976D01*
G37*
G36*
X331718Y358976D02*
X335428Y358976D01*
X338855Y360396D01*
X341477Y363018D01*
X342897Y366445D01*
X342897Y370155D01*
X341477Y373582D01*
X338855Y376205D01*
X335428Y377624D01*
X331718Y377624D01*
X328291Y376205D01*
X325668Y373582D01*
X324249Y370155D01*
X324249Y366445D01*
X325668Y363018D01*
X328291Y360396D01*
X331718Y358976D01*
G37*
G36*
X306318Y358976D02*
X310028Y358976D01*
X313455Y360396D01*
X316077Y363018D01*
X317497Y366445D01*
X317497Y370155D01*
X316077Y373582D01*
X313455Y376205D01*
X310028Y377624D01*
X306318Y377624D01*
X302891Y376205D01*
X300268Y373582D01*
X298849Y370155D01*
X298849Y366445D01*
X300268Y363018D01*
X302891Y360396D01*
X306318Y358976D01*
G37*
G36*
X255518Y358976D02*
X259228Y358976D01*
X262655Y360396D01*
X265277Y363018D01*
X266697Y366445D01*
X266697Y370155D01*
X265277Y373582D01*
X262655Y376205D01*
X259228Y377624D01*
X255518Y377624D01*
X252091Y376205D01*
X249468Y373582D01*
X248049Y370155D01*
X248049Y366445D01*
X249468Y363018D01*
X252091Y360396D01*
X255518Y358976D01*
G37*
G36*
X230118Y358976D02*
X233828Y358976D01*
X237255Y360396D01*
X239877Y363018D01*
X241297Y366445D01*
X241297Y370155D01*
X239877Y373582D01*
X237255Y376205D01*
X233828Y377624D01*
X230118Y377624D01*
X226691Y376205D01*
X224068Y373582D01*
X222649Y370155D01*
X222649Y366445D01*
X224068Y363018D01*
X226691Y360396D01*
X230118Y358976D01*
G37*
G36*
X560318Y358976D02*
X564028Y358976D01*
X567455Y360396D01*
X570077Y363018D01*
X571497Y366445D01*
X571497Y370155D01*
X570077Y373582D01*
X567455Y376205D01*
X564028Y377624D01*
X560318Y377624D01*
X556891Y376205D01*
X554268Y373582D01*
X552849Y370155D01*
X552849Y366445D01*
X554268Y363018D01*
X556891Y360396D01*
X560318Y358976D01*
G37*
G36*
X458718Y358976D02*
X462428Y358976D01*
X465855Y360396D01*
X468477Y363018D01*
X469897Y366445D01*
X469897Y370155D01*
X468477Y373582D01*
X465855Y376205D01*
X462428Y377624D01*
X458718Y377624D01*
X455291Y376205D01*
X452668Y373582D01*
X451249Y370155D01*
X451249Y366445D01*
X452668Y363018D01*
X455291Y360396D01*
X458718Y358976D01*
G37*
G36*
X484118Y358976D02*
X487828Y358976D01*
X491255Y360396D01*
X493877Y363018D01*
X495297Y366445D01*
X495297Y370155D01*
X493877Y373582D01*
X491255Y376205D01*
X487828Y377624D01*
X484118Y377624D01*
X480691Y376205D01*
X478068Y373582D01*
X476649Y370155D01*
X476649Y366445D01*
X478068Y363018D01*
X480691Y360396D01*
X484118Y358976D01*
G37*
G36*
X509518Y358976D02*
X513228Y358976D01*
X516655Y360396D01*
X519277Y363018D01*
X520697Y366445D01*
X520697Y370155D01*
X519277Y373582D01*
X516655Y376205D01*
X513228Y377624D01*
X509518Y377624D01*
X506091Y376205D01*
X503468Y373582D01*
X502049Y370155D01*
X502049Y366445D01*
X503468Y363018D01*
X506091Y360396D01*
X509518Y358976D01*
G37*
G36*
X283535Y357960D02*
X284830Y357960D01*
X288630Y359534D01*
X291539Y362443D01*
X293113Y366243D01*
X293113Y367538D01*
X283535Y367538D01*
X283535Y357960D01*
G37*
G36*
X280716Y357960D02*
X282011Y357960D01*
X282011Y367538D01*
X272433Y367538D01*
X272433Y366243D01*
X274007Y362443D01*
X276916Y359534D01*
X280716Y357960D01*
G37*
G36*
X461335Y115062D02*
X470913Y115062D01*
X470913Y116357D01*
X469339Y120157D01*
X466430Y123066D01*
X462630Y124640D01*
X461335Y124640D01*
X461335Y115062D01*
G37*
G36*
X450233Y115062D02*
X459811Y115062D01*
X459811Y124640D01*
X458516Y124640D01*
X454716Y123066D01*
X451807Y120157D01*
X450233Y116357D01*
X450233Y115062D01*
G37*
G36*
X509518Y104976D02*
X513228Y104976D01*
X516655Y106396D01*
X519277Y109018D01*
X520697Y112445D01*
X520697Y116155D01*
X519277Y119582D01*
X516655Y122205D01*
X513228Y123624D01*
X509518Y123624D01*
X506091Y122205D01*
X503468Y119582D01*
X502049Y116155D01*
X502049Y112445D01*
X503468Y109018D01*
X506091Y106396D01*
X509518Y104976D01*
G37*
G36*
X433318Y104976D02*
X437028Y104976D01*
X440455Y106396D01*
X443077Y109018D01*
X444497Y112445D01*
X444497Y116155D01*
X443077Y119582D01*
X440455Y122205D01*
X437028Y123624D01*
X433318Y123624D01*
X429891Y122205D01*
X427268Y119582D01*
X425849Y116155D01*
X425849Y112445D01*
X427268Y109018D01*
X429891Y106396D01*
X433318Y104976D01*
G37*
G36*
X484118Y104976D02*
X487828Y104976D01*
X491255Y106396D01*
X493877Y109018D01*
X495297Y112445D01*
X495297Y116155D01*
X493877Y119582D01*
X491255Y122205D01*
X487828Y123624D01*
X484118Y123624D01*
X480691Y122205D01*
X478068Y119582D01*
X476649Y116155D01*
X476649Y112445D01*
X478068Y109018D01*
X480691Y106396D01*
X484118Y104976D01*
G37*
G36*
X407918Y104976D02*
X411628Y104976D01*
X415055Y106396D01*
X417677Y109018D01*
X419097Y112445D01*
X419097Y116155D01*
X417677Y119582D01*
X415055Y122205D01*
X411628Y123624D01*
X407918Y123624D01*
X404491Y122205D01*
X401868Y119582D01*
X400449Y116155D01*
X400449Y112445D01*
X401868Y109018D01*
X404491Y106396D01*
X407918Y104976D01*
G37*
G36*
X534918Y104976D02*
X538628Y104976D01*
X542055Y106396D01*
X544677Y109018D01*
X546097Y112445D01*
X546097Y116155D01*
X544677Y119582D01*
X542055Y122205D01*
X538628Y123624D01*
X534918Y123624D01*
X531491Y122205D01*
X528868Y119582D01*
X527449Y116155D01*
X527449Y112445D01*
X528868Y109018D01*
X531491Y106396D01*
X534918Y104976D01*
G37*
G36*
X458516Y103960D02*
X459811Y103960D01*
X459811Y113538D01*
X450233Y113538D01*
X450233Y112243D01*
X451807Y108443D01*
X454716Y105534D01*
X458516Y103960D01*
G37*
G36*
X461335Y103960D02*
X462630Y103960D01*
X466430Y105534D01*
X469339Y108443D01*
X470913Y112243D01*
X470913Y113538D01*
X461335Y113538D01*
X461335Y103960D01*
G37*
G36*
X447021Y64262D02*
X460759Y64262D01*
X460759Y73867D01*
X448509Y73867D01*
X447021Y72379D01*
X447021Y64262D01*
G37*
G36*
X462283Y64262D02*
X476021Y64262D01*
X476021Y72379D01*
X474533Y73867D01*
X462283Y73867D01*
X462283Y64262D01*
G37*
G36*
X410466Y64262D02*
X417817Y64262D01*
X417817Y71358D01*
X416329Y72846D01*
X410466Y72846D01*
X410466Y64262D01*
G37*
G36*
X401591Y64262D02*
X408942Y64262D01*
X408942Y72846D01*
X403079Y72846D01*
X401591Y71358D01*
X401591Y64262D01*
G37*
G36*
X462283Y53134D02*
X474533Y53134D01*
X476021Y54621D01*
X476021Y62738D01*
X462283Y62738D01*
X462283Y53134D01*
G37*
G36*
X448509Y53134D02*
X460759Y53134D01*
X460759Y62738D01*
X447021Y62738D01*
X447021Y54621D01*
X448509Y53134D01*
G37*
G36*
X410466Y54154D02*
X416329Y54154D01*
X417817Y55642D01*
X417817Y62738D01*
X410466Y62738D01*
X410466Y54154D01*
G37*
%LPD*%
G36*
X390330Y376176D02*
X390033Y376113D01*
X389735Y376171D01*
X386228Y377624D01*
X382518Y377624D01*
X380976Y376985D01*
X380696Y376927D01*
X380398Y376983D01*
X380145Y377150D01*
X364459Y392836D01*
X364296Y393078D01*
X364236Y393375D01*
X364236Y426995D01*
X364292Y427281D01*
X364459Y427533D01*
X364875Y427949D01*
X364875Y435651D01*
X363982Y436544D01*
X360654Y436544D01*
X360391Y436591D01*
X360133Y436750D01*
X359957Y436998D01*
X359892Y437294D01*
X359948Y437592D01*
X360115Y437845D01*
X361086Y438816D01*
X361328Y438979D01*
X361625Y439039D01*
X397237Y439039D01*
X397500Y438992D01*
X397758Y438833D01*
X397934Y438585D01*
X397999Y438289D01*
X397943Y437991D01*
X397776Y437738D01*
X396110Y436072D01*
X396110Y432562D01*
X402087Y432562D01*
X402087Y426040D01*
X405053Y426040D01*
X406580Y427567D01*
X406810Y427725D01*
X407106Y427790D01*
X407404Y427735D01*
X407657Y427567D01*
X407765Y427459D01*
X407923Y427229D01*
X407988Y426932D01*
X407933Y426634D01*
X407765Y426381D01*
X405857Y424473D01*
X405857Y420077D01*
X408965Y416969D01*
X413360Y416969D01*
X416469Y420077D01*
X416469Y424473D01*
X414872Y426069D01*
X414714Y426299D01*
X414649Y426596D01*
X414705Y426894D01*
X414872Y427147D01*
X415675Y427949D01*
X415675Y435651D01*
X414782Y436544D01*
X408168Y436544D01*
X407657Y436033D01*
X407427Y435875D01*
X407131Y435810D01*
X406832Y435866D01*
X406580Y436033D01*
X404874Y437738D01*
X404721Y437958D01*
X404652Y438253D01*
X404702Y438552D01*
X404866Y438807D01*
X405116Y438979D01*
X405413Y439039D01*
X428950Y439039D01*
X429236Y438983D01*
X429489Y438816D01*
X435002Y433302D01*
X435165Y433061D01*
X435226Y432763D01*
X435226Y427949D01*
X436118Y427056D01*
X439446Y427056D01*
X439709Y427009D01*
X439967Y426850D01*
X440143Y426602D01*
X440208Y426306D01*
X440152Y426008D01*
X439985Y425755D01*
X390566Y376336D01*
X390330Y376176D01*
G37*
%LPC*%
G36*
X397597Y426040D02*
X400563Y426040D01*
X400563Y431038D01*
X396110Y431038D01*
X396110Y427528D01*
X397597Y426040D01*
G37*
%LPD*%
G36*
X626097Y72196D02*
X625800Y72136D01*
X596575Y72136D01*
X596289Y72192D01*
X596036Y72359D01*
X594672Y73724D01*
X590366Y73724D01*
X590080Y73779D01*
X589937Y73874D01*
X587882Y73874D01*
X587714Y73917D01*
X587670Y73904D01*
X587457Y73874D01*
X581846Y73874D01*
X580969Y72997D01*
X580728Y72834D01*
X580430Y72774D01*
X562570Y72774D01*
X562284Y72830D01*
X562031Y72997D01*
X561154Y73874D01*
X560261Y73874D01*
X559986Y73925D01*
X559730Y74089D01*
X559559Y74339D01*
X559499Y74636D01*
X559499Y104214D01*
X559550Y104489D01*
X559713Y104744D01*
X559963Y104916D01*
X560261Y104976D01*
X564028Y104976D01*
X567455Y106396D01*
X570077Y109018D01*
X571497Y112445D01*
X571497Y116155D01*
X570077Y119582D01*
X567455Y122205D01*
X566319Y122675D01*
X566080Y122832D01*
X565909Y123082D01*
X565849Y123379D01*
X565849Y290837D01*
X565904Y291123D01*
X566072Y291376D01*
X696049Y421353D01*
X696290Y421516D01*
X696588Y421577D01*
X705864Y421577D01*
X706139Y421525D01*
X706394Y421362D01*
X706566Y421112D01*
X706626Y420815D01*
X706626Y420019D01*
X707706Y418939D01*
X707864Y418708D01*
X707929Y418412D01*
X707873Y418114D01*
X707706Y417861D01*
X706626Y416781D01*
X706626Y412019D01*
X706988Y411657D01*
X707146Y411427D01*
X707211Y411131D01*
X707155Y410832D01*
X706988Y410580D01*
X705610Y409202D01*
X705610Y407162D01*
X712662Y407162D01*
X712662Y405638D01*
X705610Y405638D01*
X705610Y403598D01*
X706988Y402220D01*
X707146Y401990D01*
X707211Y401694D01*
X707155Y401396D01*
X706988Y401143D01*
X706626Y400781D01*
X706626Y396019D01*
X707706Y394939D01*
X707864Y394708D01*
X707929Y394412D01*
X707873Y394114D01*
X707706Y393861D01*
X706626Y392781D01*
X706626Y388019D01*
X707706Y386939D01*
X707864Y386708D01*
X707929Y386412D01*
X707873Y386114D01*
X707706Y385861D01*
X706626Y384781D01*
X706626Y380019D01*
X707519Y379126D01*
X716281Y379126D01*
X717138Y379983D01*
X717358Y380136D01*
X717653Y380206D01*
X717952Y380155D01*
X718207Y379991D01*
X718379Y379741D01*
X718439Y379444D01*
X718439Y363213D01*
X718383Y362927D01*
X718216Y362674D01*
X586677Y231134D01*
X586677Y124386D01*
X586625Y124111D01*
X586462Y123856D01*
X586212Y123684D01*
X585915Y123624D01*
X585718Y123624D01*
X582291Y122205D01*
X579668Y119582D01*
X578249Y116155D01*
X578249Y112445D01*
X579668Y109018D01*
X582291Y106396D01*
X585718Y104976D01*
X589428Y104976D01*
X592855Y106396D01*
X595477Y109018D01*
X596897Y112445D01*
X596897Y116155D01*
X595477Y119582D01*
X592855Y122205D01*
X591719Y122675D01*
X591480Y122832D01*
X591309Y123082D01*
X591249Y123379D01*
X591249Y228925D01*
X591304Y229211D01*
X591472Y229464D01*
X699831Y337823D01*
X700050Y337976D01*
X700345Y338046D01*
X700644Y337995D01*
X700900Y337831D01*
X701071Y337581D01*
X701132Y337284D01*
X701132Y334352D01*
X703705Y331778D01*
X703863Y331548D01*
X703928Y331252D01*
X703873Y330954D01*
X703705Y330701D01*
X661109Y288104D01*
X660867Y287941D01*
X660570Y287881D01*
X656615Y287881D01*
X653507Y284773D01*
X653507Y280377D01*
X656615Y277269D01*
X661010Y277269D01*
X664119Y280377D01*
X664119Y284332D01*
X664174Y284618D01*
X664342Y284871D01*
X713817Y334347D01*
X714059Y334510D01*
X714356Y334570D01*
X720514Y334570D01*
X720777Y334523D01*
X721035Y334364D01*
X721211Y334116D01*
X721276Y333820D01*
X721220Y333522D01*
X721053Y333269D01*
X720182Y332398D01*
X720182Y328002D01*
X721391Y326793D01*
X721554Y326551D01*
X721614Y326254D01*
X721614Y287630D01*
X721563Y287355D01*
X721399Y287099D01*
X721149Y286928D01*
X720852Y286868D01*
X713892Y286868D01*
X713000Y285975D01*
X713000Y272825D01*
X713892Y271933D01*
X720852Y271933D01*
X721127Y271881D01*
X721382Y271718D01*
X721554Y271468D01*
X721614Y271171D01*
X721614Y224130D01*
X721563Y223855D01*
X721399Y223599D01*
X721149Y223428D01*
X720852Y223368D01*
X713892Y223368D01*
X713000Y222475D01*
X713000Y209325D01*
X713892Y208433D01*
X720852Y208433D01*
X721127Y208381D01*
X721382Y208218D01*
X721554Y207968D01*
X721614Y207671D01*
X721614Y160630D01*
X721563Y160355D01*
X721399Y160099D01*
X721149Y159928D01*
X720852Y159868D01*
X715056Y159868D01*
X714163Y158975D01*
X714163Y155448D01*
X714112Y155173D01*
X713948Y154918D01*
X713698Y154746D01*
X713401Y154686D01*
X708666Y154686D01*
X626339Y72359D01*
X626097Y72196D01*
G37*
%LPC*%
G36*
X613735Y115062D02*
X623313Y115062D01*
X623313Y116357D01*
X621739Y120157D01*
X618830Y123066D01*
X615030Y124640D01*
X613735Y124640D01*
X613735Y115062D01*
G37*
G36*
X602633Y115062D02*
X612211Y115062D01*
X612211Y124640D01*
X610916Y124640D01*
X607116Y123066D01*
X604207Y120157D01*
X602633Y116357D01*
X602633Y115062D01*
G37*
G36*
X610916Y103960D02*
X612211Y103960D01*
X612211Y113538D01*
X602633Y113538D01*
X602633Y112243D01*
X604207Y108443D01*
X607116Y105534D01*
X610916Y103960D01*
G37*
G36*
X613735Y103960D02*
X615030Y103960D01*
X618830Y105534D01*
X621739Y108443D01*
X623313Y112243D01*
X623313Y113538D01*
X613735Y113538D01*
X613735Y103960D01*
G37*
%LPD*%
G36*
X549947Y54050D02*
X549651Y53985D01*
X549353Y54041D01*
X549100Y54208D01*
X546570Y56738D01*
X546417Y56958D01*
X546347Y57253D01*
X546398Y57552D01*
X546561Y57807D01*
X546811Y57979D01*
X547109Y58039D01*
X549639Y58039D01*
X549913Y57988D01*
X550169Y57824D01*
X550340Y57574D01*
X550401Y57277D01*
X550401Y56762D01*
X557889Y56762D01*
X557889Y55238D01*
X550401Y55238D01*
X550401Y54747D01*
X550354Y54484D01*
X550194Y54226D01*
X549947Y54050D01*
G37*
D10*
X634601Y419100D03*
X660799Y419100D03*
X190101Y63500D03*
X216299Y63500D03*
X279001Y419100D03*
X305199Y419100D03*
X723501Y279400D03*
X749699Y279400D03*
X723501Y215900D03*
X749699Y215900D03*
X724665Y152400D03*
X750863Y152400D03*
X710801Y88900D03*
X736999Y88900D03*
X647301Y63500D03*
X673499Y63500D03*
D11*
X233800Y419100D03*
X248800Y419100D03*
X310000Y63500D03*
X325000Y63500D03*
D12*
X377696Y63500D03*
X409704Y63500D03*
D13*
X461521Y63500D03*
X503679Y63500D03*
X67821Y101600D03*
X109979Y101600D03*
D12*
X720596Y342900D03*
X752604Y342900D03*
D13*
X67821Y177800D03*
X109979Y177800D03*
X55121Y241300D03*
X97279Y241300D03*
D14*
X528325Y431800D03*
X538475Y431800D03*
X566425Y431800D03*
X576575Y431800D03*
X401325Y431800D03*
X411475Y431800D03*
X350525Y431800D03*
X360675Y431800D03*
X134625Y63500D03*
X144775Y63500D03*
X439425Y431800D03*
X449575Y431800D03*
X477525Y431800D03*
X487675Y431800D03*
D15*
X554291Y71000D02*
X559963Y71000D01*
X559963Y66000D02*
X554291Y66000D01*
X554291Y61000D02*
X559963Y61000D01*
X559963Y56000D02*
X554291Y56000D01*
X583037Y56000D02*
X588709Y56000D01*
X588709Y61000D02*
X583037Y61000D01*
X583037Y66000D02*
X588709Y66000D01*
X588709Y71000D02*
X583037Y71000D01*
D16*
X571500Y63500D03*
D17*
X56500Y418900D03*
X56500Y413900D03*
X56500Y408900D03*
X56500Y403900D03*
X56500Y398900D03*
X56500Y393900D03*
D18*
X63700Y386700D03*
X68700Y386700D03*
X73700Y386700D03*
X78700Y386700D03*
X83700Y386700D03*
X88700Y386700D03*
D17*
X95900Y393900D03*
X95900Y398900D03*
X95900Y403900D03*
X95900Y408900D03*
X95900Y413900D03*
X95900Y418900D03*
D18*
X88700Y426100D03*
X83700Y426100D03*
X78700Y426100D03*
X73700Y426100D03*
X68700Y426100D03*
X63700Y426100D03*
D19*
X612973Y368300D03*
D20*
X587573Y368300D03*
X562173Y368300D03*
X536773Y368300D03*
X511373Y368300D03*
X485973Y368300D03*
X460573Y368300D03*
X435173Y368300D03*
X409773Y368300D03*
X384373Y368300D03*
X358973Y368300D03*
X333573Y368300D03*
X308173Y368300D03*
X282773Y368300D03*
X257373Y368300D03*
X231973Y368300D03*
X206573Y368300D03*
X181173Y368300D03*
X155773Y368300D03*
X612973Y114300D03*
X587573Y114300D03*
X562173Y114300D03*
X536773Y114300D03*
X511373Y114300D03*
X485973Y114300D03*
X460573Y114300D03*
X435173Y114300D03*
X409773Y114300D03*
X384373Y114300D03*
X358973Y114300D03*
X333573Y114300D03*
X308173Y114300D03*
X282773Y114300D03*
X257373Y114300D03*
X231973Y114300D03*
X206573Y114300D03*
X181173Y114300D03*
X155773Y114300D03*
D21*
X136750Y448600D02*
X118550Y448600D01*
X118550Y453100D01*
X136750Y453100D01*
X136750Y448600D01*
X136750Y450025D02*
X118550Y450025D01*
X118550Y451450D02*
X136750Y451450D01*
X136750Y452875D02*
X118550Y452875D01*
X118550Y435900D02*
X136750Y435900D01*
X118550Y435900D02*
X118550Y440400D01*
X136750Y440400D01*
X136750Y435900D01*
X136750Y437325D02*
X118550Y437325D01*
X118550Y438750D02*
X136750Y438750D01*
X136750Y440175D02*
X118550Y440175D01*
X118550Y423200D02*
X136750Y423200D01*
X118550Y423200D02*
X118550Y427700D01*
X136750Y427700D01*
X136750Y423200D01*
X136750Y424625D02*
X118550Y424625D01*
X118550Y426050D02*
X136750Y426050D01*
X136750Y427475D02*
X118550Y427475D01*
X118550Y410500D02*
X136750Y410500D01*
X118550Y410500D02*
X118550Y415000D01*
X136750Y415000D01*
X136750Y410500D01*
X136750Y411925D02*
X118550Y411925D01*
X118550Y413350D02*
X136750Y413350D01*
X136750Y414775D02*
X118550Y414775D01*
X168050Y410500D02*
X186250Y410500D01*
X168050Y410500D02*
X168050Y415000D01*
X186250Y415000D01*
X186250Y410500D01*
X186250Y411925D02*
X168050Y411925D01*
X168050Y413350D02*
X186250Y413350D01*
X186250Y414775D02*
X168050Y414775D01*
X168050Y423200D02*
X186250Y423200D01*
X168050Y423200D02*
X168050Y427700D01*
X186250Y427700D01*
X186250Y423200D01*
X186250Y424625D02*
X168050Y424625D01*
X168050Y426050D02*
X186250Y426050D01*
X186250Y427475D02*
X168050Y427475D01*
X168050Y435900D02*
X186250Y435900D01*
X168050Y435900D02*
X168050Y440400D01*
X186250Y440400D01*
X186250Y435900D01*
X186250Y437325D02*
X168050Y437325D01*
X168050Y438750D02*
X186250Y438750D01*
X186250Y440175D02*
X168050Y440175D01*
X168050Y448600D02*
X186250Y448600D01*
X168050Y448600D02*
X168050Y453100D01*
X186250Y453100D01*
X186250Y448600D01*
X186250Y450025D02*
X168050Y450025D01*
X168050Y451450D02*
X186250Y451450D01*
X186250Y452875D02*
X168050Y452875D01*
D22*
X152400Y431800D03*
D23*
X711900Y430400D03*
X711900Y422400D03*
X711900Y414400D03*
X711900Y406400D03*
X711900Y398400D03*
X711900Y390400D03*
X711900Y382400D03*
X735900Y382400D03*
X735900Y390400D03*
X735900Y398400D03*
X735900Y406400D03*
X735900Y414400D03*
X735900Y422400D03*
X735900Y430400D03*
D24*
X58150Y340500D03*
X58150Y317500D03*
X58150Y294500D03*
D25*
X119650Y317500D03*
D26*
X382588Y63500D02*
X393700Y63500D01*
X411163Y46038D01*
X611188Y46038D01*
X654050Y88900D01*
X710801Y88900D01*
X128588Y366713D02*
X128588Y412750D01*
X138113Y357188D02*
X138113Y352425D01*
X371475Y119063D01*
X371475Y74613D01*
X382588Y63500D01*
X128588Y412750D02*
X127650Y412750D01*
X377696Y63500D02*
X382588Y63500D01*
D27*
X128588Y366713D03*
X138113Y357188D03*
D26*
X658813Y282575D02*
X709613Y333375D01*
X719138Y342900D01*
X658813Y76200D02*
X646113Y63500D01*
X719138Y342900D02*
X720596Y342900D01*
X647301Y63500D02*
X646113Y63500D01*
X277813Y419100D02*
X261938Y419100D01*
X252413Y409575D01*
X180975Y409575D01*
X177800Y412750D01*
X177150Y412750D01*
X119063Y355600D02*
X58738Y295275D01*
X119063Y355600D02*
X119063Y366713D01*
X136525Y374650D02*
X174625Y412750D01*
X177150Y412750D01*
X58738Y295275D02*
X58150Y294500D01*
X706438Y336550D02*
X709613Y333375D01*
X290513Y406400D02*
X277813Y419100D01*
X279001Y419100D01*
D27*
X658813Y282575D03*
X658813Y76200D03*
X119063Y366713D03*
X136525Y374650D03*
X706438Y336550D03*
X290513Y406400D03*
D26*
X566738Y441325D02*
X576263Y431800D01*
X193675Y431800D02*
X187325Y425450D01*
X177150Y425450D01*
X576263Y431800D02*
X576575Y431800D01*
D27*
X566738Y441325D03*
X193675Y431800D03*
D26*
X558800Y425450D02*
X565150Y431800D01*
X547688Y414338D02*
X547688Y320675D01*
X346075Y88900D02*
X325438Y68263D01*
X325438Y63500D01*
X565150Y431800D02*
X566425Y431800D01*
X325438Y63500D02*
X325000Y63500D01*
D27*
X558800Y425450D03*
X547688Y414338D03*
X547688Y320675D03*
X346075Y88900D03*
D26*
X538163Y431800D02*
X538163Y441325D01*
X193675Y444500D02*
X187325Y438150D01*
X177150Y438150D01*
X538163Y431800D02*
X538475Y431800D01*
D27*
X538163Y441325D03*
X193675Y444500D03*
D26*
X520700Y438150D02*
X527050Y431800D01*
X269875Y438150D02*
X250825Y419100D01*
X248800Y419100D01*
X527050Y431800D02*
X528325Y431800D01*
D27*
X520700Y438150D03*
X269875Y438150D03*
D26*
X411163Y431800D02*
X411163Y422275D01*
X119063Y438150D02*
X112713Y431800D01*
X119063Y438150D02*
X127650Y438150D01*
X411163Y431800D02*
X411475Y431800D01*
D27*
X411163Y422275D03*
X112713Y431800D03*
D26*
X730250Y422275D02*
X735013Y422275D01*
X730250Y422275D02*
X720725Y412750D01*
X720725Y361950D01*
X588963Y230188D01*
X588963Y114300D01*
X735013Y422275D02*
X735900Y422400D01*
X588963Y114300D02*
X587573Y114300D01*
X73025Y377825D02*
X73025Y385763D01*
X73025Y377825D02*
X74613Y376238D01*
X96838Y419100D02*
X96838Y427038D01*
X73700Y386700D02*
X73025Y385763D01*
X95900Y418900D02*
X96838Y419100D01*
X730250Y234950D02*
X749300Y215900D01*
X749699Y215900D01*
X68263Y227013D02*
X68263Y177800D01*
X67821Y177800D01*
D27*
X74613Y376238D03*
X96838Y427038D03*
X730250Y234950D03*
X68263Y227013D03*
D26*
X88900Y379413D02*
X88900Y385763D01*
X88900Y379413D02*
X85725Y376238D01*
X88900Y385763D02*
X88700Y386700D01*
D27*
X85725Y376238D03*
D26*
X134625Y63500D02*
X144775Y63500D01*
X149225Y63500D02*
X190101Y63500D01*
X149225Y63500D02*
X144775Y63500D01*
X149225Y63500D02*
X111125Y101600D01*
X109979Y101600D01*
X68263Y373063D02*
X68263Y385763D01*
X68263Y373063D02*
X71438Y369888D01*
X73025Y369888D02*
X88900Y369888D01*
X73025Y369888D02*
X71438Y369888D01*
X88900Y369888D02*
X95250Y376238D01*
X95250Y393700D01*
X68700Y386700D02*
X68263Y385763D01*
X95250Y393700D02*
X95900Y393900D01*
X73025Y331788D02*
X58738Y317500D01*
X73025Y331788D02*
X73025Y369888D01*
X58738Y317500D02*
X58150Y317500D01*
X98425Y241300D02*
X98425Y190500D01*
X111125Y177800D01*
X98425Y241300D02*
X97279Y241300D01*
X109979Y177800D02*
X111125Y177800D01*
X119063Y263525D02*
X119063Y317500D01*
X119063Y263525D02*
X96838Y241300D01*
X97279Y241300D01*
X119063Y317500D02*
X104775Y331788D01*
X119063Y317500D02*
X119650Y317500D01*
X109538Y177800D02*
X109538Y101600D01*
X109979Y101600D01*
X109979Y177800D02*
X109538Y177800D01*
X633413Y392113D02*
X633413Y419100D01*
X633413Y392113D02*
X614363Y373063D01*
X614363Y368300D01*
X633413Y419100D02*
X634601Y419100D01*
X614363Y368300D02*
X612973Y368300D01*
X457200Y431800D02*
X449575Y431800D01*
X457200Y431800D02*
X465138Y423863D01*
X481013Y423863D01*
X488950Y431800D01*
X487675Y431800D01*
X361950Y431800D02*
X361950Y392113D01*
X385763Y368300D01*
X361950Y431800D02*
X360675Y431800D01*
X385763Y368300D02*
X449263Y431800D01*
X449575Y431800D01*
X385763Y368300D02*
X384373Y368300D01*
X600075Y373063D02*
X614363Y373063D01*
X600075Y373063D02*
X549275Y423863D01*
X481013Y423863D01*
X614363Y373063D02*
X612973Y368300D01*
X539750Y60325D02*
X508000Y60325D01*
X539750Y60325D02*
X555625Y60325D01*
X508000Y60325D02*
X504825Y63500D01*
X555625Y60325D02*
X557127Y61000D01*
X504825Y63500D02*
X503679Y63500D01*
X587375Y71438D02*
X593725Y71438D01*
X595313Y69850D01*
X595313Y55563D01*
X588963Y49213D01*
X550863Y49213D01*
X539750Y60325D01*
X585873Y71000D02*
X587375Y71438D01*
X736600Y390525D02*
X736600Y396875D01*
X736600Y390525D02*
X735900Y390400D01*
X736600Y396875D02*
X735900Y398400D01*
X736600Y398463D02*
X736600Y406400D01*
X735900Y406400D01*
X736600Y398463D02*
X735900Y398400D01*
X736600Y388938D02*
X741363Y388938D01*
X744538Y385763D01*
X744538Y349250D01*
X725488Y330200D02*
X723900Y328613D01*
X725488Y330200D02*
X744538Y349250D01*
X723900Y328613D02*
X723900Y279400D01*
X736600Y388938D02*
X735900Y390400D01*
X723900Y279400D02*
X723900Y215900D01*
X723900Y279400D02*
X723501Y279400D01*
X723900Y215900D02*
X723900Y152400D01*
X723900Y215900D02*
X723501Y215900D01*
X627063Y69850D02*
X595313Y69850D01*
X627063Y69850D02*
X709613Y152400D01*
X723900Y152400D01*
X724665Y152400D01*
X104775Y331788D02*
X104775Y333375D01*
X163513Y392113D01*
X361950Y392113D01*
D27*
X73025Y331788D03*
X104775Y331788D03*
X725488Y330200D03*
D26*
X557213Y69850D02*
X557213Y66675D01*
X557127Y66000D01*
X557213Y69850D02*
X557127Y71000D01*
X557213Y71438D02*
X557213Y109538D01*
X561975Y114300D01*
X557213Y71438D02*
X557127Y71000D01*
X561975Y114300D02*
X562173Y114300D01*
X712788Y415925D02*
X712788Y422275D01*
X712788Y415925D02*
X711900Y414400D01*
X712788Y422275D02*
X711900Y422400D01*
X68263Y427038D02*
X65088Y427038D01*
X63700Y426100D01*
X68263Y427038D02*
X68700Y426100D01*
X357188Y438150D02*
X360363Y441325D01*
X357188Y438150D02*
X350838Y431800D01*
X360363Y441325D02*
X430213Y441325D01*
X431800Y439738D02*
X439738Y431800D01*
X431800Y439738D02*
X430213Y441325D01*
X350838Y431800D02*
X350525Y431800D01*
X439425Y431800D02*
X439738Y431800D01*
X461963Y431800D02*
X474663Y431800D01*
X477525Y431800D01*
X461963Y431800D02*
X454025Y439738D01*
X431800Y439738D01*
X69850Y433388D02*
X69850Y427038D01*
X69850Y433388D02*
X93663Y457200D01*
X338138Y457200D01*
X357188Y438150D01*
X69850Y427038D02*
X68700Y426100D01*
X677863Y423863D02*
X695325Y423863D01*
X711200Y423863D01*
X677863Y423863D02*
X650875Y450850D01*
X493713Y450850D01*
X474663Y431800D01*
X711200Y423863D02*
X711900Y422400D01*
X563563Y292100D02*
X563563Y114300D01*
X563563Y292100D02*
X695325Y423863D01*
X563563Y114300D02*
X562173Y114300D01*
M02*
