G04 EAGLE Gerber RS-274X export*
G75*
%MOMM*%
%FSLAX34Y34*%
%LPD*%
%INBottom Copper*%
%IPPOS*%
%AMOC8*
5,1,8,0,0,1.08239X$1,22.5*%
G01*
G04 Define Apertures*
%ADD10R,1.560000X1.560000*%
%ADD11C,1.560000*%
%ADD12C,0.152400*%
%ADD13C,0.756400*%
G36*
X700085Y40165D02*
X700000Y40160D01*
X100000Y40160D01*
X99915Y40165D01*
X94877Y40732D01*
X94751Y40757D01*
X89174Y42364D01*
X89093Y42392D01*
X81278Y45630D01*
X81201Y45667D01*
X73797Y49759D01*
X73724Y49804D01*
X66825Y54700D01*
X66758Y54753D01*
X60450Y60390D01*
X60390Y60450D01*
X54753Y66758D01*
X54700Y66825D01*
X49804Y73724D01*
X49759Y73797D01*
X45667Y81201D01*
X45630Y81278D01*
X42392Y89093D01*
X42364Y89174D01*
X40757Y94751D01*
X40732Y94877D01*
X40165Y99915D01*
X40160Y100000D01*
X40160Y400000D01*
X40165Y400085D01*
X41646Y413231D01*
X41684Y413398D01*
X46053Y425885D01*
X46127Y426038D01*
X53166Y437240D01*
X53272Y437373D01*
X62627Y446728D01*
X62760Y446834D01*
X73962Y453873D01*
X74115Y453947D01*
X86602Y458316D01*
X86769Y458354D01*
X99915Y459835D01*
X100000Y459840D01*
X700000Y459840D01*
X700085Y459835D01*
X713231Y458354D01*
X713398Y458316D01*
X725885Y453947D01*
X726038Y453873D01*
X737240Y446834D01*
X737373Y446728D01*
X746728Y437373D01*
X746834Y437240D01*
X753873Y426038D01*
X753947Y425885D01*
X758316Y413398D01*
X758354Y413231D01*
X759835Y400085D01*
X759840Y400000D01*
X759840Y100000D01*
X759835Y99915D01*
X758354Y86769D01*
X758316Y86602D01*
X753947Y74115D01*
X753873Y73962D01*
X746834Y62760D01*
X746728Y62627D01*
X737373Y53272D01*
X737240Y53166D01*
X726038Y46127D01*
X725885Y46053D01*
X713398Y41684D01*
X713231Y41646D01*
X700085Y40165D01*
G37*
%LPC*%
G36*
X723290Y324894D02*
X727685Y324894D01*
X730794Y328002D01*
X730794Y332398D01*
X727685Y335506D01*
X723290Y335506D01*
X720493Y332709D01*
X720251Y332546D01*
X719954Y332486D01*
X711717Y332486D01*
X711454Y332533D01*
X711196Y332692D01*
X711020Y332940D01*
X710955Y333236D01*
X711011Y333534D01*
X711178Y333787D01*
X711744Y334352D01*
X711744Y338748D01*
X708635Y341856D01*
X704680Y341856D01*
X704394Y341912D01*
X704141Y342079D01*
X637534Y408686D01*
X551379Y408686D01*
X551116Y408733D01*
X550858Y408892D01*
X550683Y409140D01*
X550618Y409436D01*
X550673Y409734D01*
X550841Y409987D01*
X552994Y412140D01*
X552994Y416095D01*
X553049Y416381D01*
X553217Y416634D01*
X556504Y419921D01*
X556745Y420084D01*
X557043Y420144D01*
X560998Y420144D01*
X564106Y423252D01*
X564106Y427648D01*
X560908Y430846D01*
X560720Y430962D01*
X560544Y431210D01*
X560479Y431506D01*
X560535Y431804D01*
X560702Y432057D01*
X564441Y435796D01*
X564683Y435959D01*
X564980Y436019D01*
X568935Y436019D01*
X572044Y439127D01*
X572044Y443523D01*
X568935Y446631D01*
X564540Y446631D01*
X561432Y443523D01*
X561432Y439568D01*
X561376Y439282D01*
X561208Y439029D01*
X556489Y434309D01*
X556247Y434146D01*
X555950Y434086D01*
X525979Y434086D01*
X525716Y434133D01*
X525458Y434292D01*
X525283Y434540D01*
X525218Y434836D01*
X525273Y435134D01*
X525441Y435387D01*
X526006Y435952D01*
X526006Y440348D01*
X525441Y440913D01*
X525288Y441133D01*
X525218Y441428D01*
X525269Y441727D01*
X525432Y441982D01*
X525682Y442154D01*
X525979Y442214D01*
X532095Y442214D01*
X532369Y442163D01*
X532625Y441999D01*
X532796Y441749D01*
X532857Y441452D01*
X532857Y439127D01*
X535965Y436019D01*
X540360Y436019D01*
X543469Y439127D01*
X543469Y443523D01*
X540360Y446631D01*
X536405Y446631D01*
X536119Y446687D01*
X535969Y446786D01*
X199208Y446786D01*
X198922Y446842D01*
X198670Y447009D01*
X195873Y449806D01*
X191477Y449806D01*
X188369Y446698D01*
X188369Y442302D01*
X191477Y439194D01*
X195873Y439194D01*
X198670Y441991D01*
X198911Y442154D01*
X199208Y442214D01*
X264596Y442214D01*
X264859Y442167D01*
X265117Y442008D01*
X265292Y441760D01*
X265357Y441464D01*
X265302Y441166D01*
X265134Y440913D01*
X264569Y440348D01*
X264569Y435952D01*
X265134Y435387D01*
X265287Y435167D01*
X265357Y434872D01*
X265306Y434573D01*
X265143Y434318D01*
X264893Y434146D01*
X264596Y434086D01*
X199208Y434086D01*
X198922Y434142D01*
X198670Y434309D01*
X195873Y437106D01*
X191477Y437106D01*
X188369Y433998D01*
X188369Y429602D01*
X188934Y429037D01*
X189087Y428817D01*
X189157Y428522D01*
X189106Y428223D01*
X188943Y427968D01*
X188693Y427796D01*
X188396Y427736D01*
X120325Y427736D01*
X120039Y427792D01*
X119786Y427959D01*
X118242Y429504D01*
X118079Y429745D01*
X118019Y430043D01*
X118019Y433998D01*
X114910Y437106D01*
X110515Y437106D01*
X107407Y433998D01*
X107407Y429602D01*
X110515Y426494D01*
X114470Y426494D01*
X114756Y426438D01*
X115009Y426271D01*
X118116Y423164D01*
X405095Y423164D01*
X405369Y423113D01*
X405625Y422949D01*
X405796Y422699D01*
X405857Y422402D01*
X405857Y420077D01*
X408965Y416969D01*
X413360Y416969D01*
X416469Y420077D01*
X416469Y424473D01*
X413360Y427581D01*
X409405Y427581D01*
X409119Y427637D01*
X408969Y427736D01*
X198954Y427736D01*
X198691Y427783D01*
X198433Y427942D01*
X198258Y428190D01*
X198193Y428486D01*
X198248Y428784D01*
X198416Y429037D01*
X198670Y429291D01*
X198911Y429454D01*
X199208Y429514D01*
X553521Y429514D01*
X553784Y429467D01*
X554042Y429308D01*
X554217Y429060D01*
X554282Y428764D01*
X554227Y428466D01*
X554059Y428213D01*
X553494Y427648D01*
X553494Y423693D01*
X553438Y423407D01*
X553271Y423154D01*
X549984Y419867D01*
X549742Y419704D01*
X549445Y419644D01*
X545490Y419644D01*
X542382Y416535D01*
X542382Y412140D01*
X544534Y409987D01*
X544687Y409767D01*
X544757Y409472D01*
X544706Y409173D01*
X544543Y408918D01*
X544293Y408746D01*
X543996Y408686D01*
X296046Y408686D01*
X295760Y408742D01*
X295507Y408909D01*
X292710Y411706D01*
X288315Y411706D01*
X285207Y408598D01*
X285207Y404202D01*
X288315Y401094D01*
X292710Y401094D01*
X295507Y403891D01*
X295749Y404054D01*
X296046Y404114D01*
X635325Y404114D01*
X635611Y404058D01*
X635864Y403891D01*
X700908Y338846D01*
X701071Y338605D01*
X701132Y338307D01*
X701132Y334352D01*
X701697Y333787D01*
X701850Y333567D01*
X701920Y333272D01*
X701869Y332973D01*
X701705Y332718D01*
X701455Y332546D01*
X701158Y332486D01*
X653725Y332486D01*
X653439Y332542D01*
X653186Y332709D01*
X622520Y363375D01*
X622357Y363617D01*
X622297Y363914D01*
X622297Y376731D01*
X621404Y377624D01*
X604542Y377624D01*
X603649Y376731D01*
X603649Y359869D01*
X604542Y358976D01*
X620138Y358976D01*
X620424Y358920D01*
X620677Y358753D01*
X651516Y327914D01*
X719954Y327914D01*
X720240Y327858D01*
X720493Y327691D01*
X723290Y324894D01*
G37*
G36*
X66065Y221707D02*
X70460Y221707D01*
X73569Y224815D01*
X73569Y228770D01*
X73624Y229056D01*
X73792Y229309D01*
X113411Y268928D01*
X113411Y347790D01*
X113462Y348064D01*
X113626Y348320D01*
X113876Y348491D01*
X114173Y348552D01*
X613100Y348552D01*
X613386Y348496D01*
X613639Y348328D01*
X724721Y237246D01*
X724884Y237005D01*
X724944Y236707D01*
X724944Y232752D01*
X728052Y229644D01*
X732448Y229644D01*
X735556Y232752D01*
X735556Y237148D01*
X732448Y240256D01*
X728493Y240256D01*
X728207Y240312D01*
X727954Y240479D01*
X615309Y353124D01*
X143392Y353124D01*
X143129Y353170D01*
X142871Y353330D01*
X142695Y353577D01*
X142630Y353873D01*
X142686Y354171D01*
X142853Y354424D01*
X143419Y354990D01*
X143419Y359385D01*
X140310Y362494D01*
X136355Y362494D01*
X136069Y362549D01*
X135816Y362717D01*
X134117Y364416D01*
X133954Y364658D01*
X133894Y364955D01*
X133894Y368582D01*
X133945Y368857D01*
X134108Y369112D01*
X134358Y369284D01*
X134656Y369344D01*
X138723Y369344D01*
X141831Y372452D01*
X141831Y376848D01*
X141266Y377413D01*
X141113Y377633D01*
X141043Y377928D01*
X141094Y378227D01*
X141257Y378482D01*
X141507Y378654D01*
X141804Y378714D01*
X152719Y378714D01*
X152977Y378669D01*
X153236Y378512D01*
X153413Y378266D01*
X153481Y377970D01*
X153427Y377672D01*
X153262Y377418D01*
X153010Y377248D01*
X150491Y376205D01*
X147868Y373582D01*
X146449Y370155D01*
X146449Y366445D01*
X147868Y363018D01*
X150491Y360396D01*
X153918Y358976D01*
X157628Y358976D01*
X161055Y360396D01*
X163677Y363018D01*
X165097Y366445D01*
X165097Y370155D01*
X163677Y373582D01*
X161055Y376205D01*
X158535Y377248D01*
X158314Y377388D01*
X158135Y377633D01*
X158065Y377928D01*
X158116Y378227D01*
X158280Y378482D01*
X158530Y378654D01*
X158827Y378714D01*
X178119Y378714D01*
X178377Y378669D01*
X178636Y378512D01*
X178813Y378266D01*
X178881Y377970D01*
X178827Y377672D01*
X178662Y377418D01*
X178410Y377248D01*
X175891Y376205D01*
X173268Y373582D01*
X171849Y370155D01*
X171849Y366445D01*
X173268Y363018D01*
X175891Y360396D01*
X179318Y358976D01*
X183028Y358976D01*
X186455Y360396D01*
X189077Y363018D01*
X190497Y366445D01*
X190497Y370155D01*
X189077Y373582D01*
X186455Y376205D01*
X183935Y377248D01*
X183714Y377388D01*
X183535Y377633D01*
X183465Y377928D01*
X183516Y378227D01*
X183680Y378482D01*
X183930Y378654D01*
X184227Y378714D01*
X203519Y378714D01*
X203777Y378669D01*
X204036Y378512D01*
X204213Y378266D01*
X204281Y377970D01*
X204227Y377672D01*
X204062Y377418D01*
X203810Y377248D01*
X201291Y376205D01*
X198668Y373582D01*
X197249Y370155D01*
X197249Y366445D01*
X198668Y363018D01*
X201291Y360396D01*
X204718Y358976D01*
X208428Y358976D01*
X211855Y360396D01*
X214477Y363018D01*
X215897Y366445D01*
X215897Y370155D01*
X214477Y373582D01*
X211855Y376205D01*
X209335Y377248D01*
X209114Y377388D01*
X208935Y377633D01*
X208865Y377928D01*
X208916Y378227D01*
X209080Y378482D01*
X209330Y378654D01*
X209627Y378714D01*
X228919Y378714D01*
X229177Y378669D01*
X229436Y378512D01*
X229613Y378266D01*
X229681Y377970D01*
X229627Y377672D01*
X229462Y377418D01*
X229210Y377248D01*
X226691Y376205D01*
X224068Y373582D01*
X222649Y370155D01*
X222649Y366445D01*
X224068Y363018D01*
X226691Y360396D01*
X230118Y358976D01*
X233828Y358976D01*
X237255Y360396D01*
X239877Y363018D01*
X241297Y366445D01*
X241297Y370155D01*
X239877Y373582D01*
X237255Y376205D01*
X234735Y377248D01*
X234514Y377388D01*
X234335Y377633D01*
X234265Y377928D01*
X234316Y378227D01*
X234480Y378482D01*
X234730Y378654D01*
X235027Y378714D01*
X254319Y378714D01*
X254577Y378669D01*
X254836Y378512D01*
X255013Y378266D01*
X255081Y377970D01*
X255027Y377672D01*
X254862Y377418D01*
X254610Y377248D01*
X252091Y376205D01*
X249468Y373582D01*
X248049Y370155D01*
X248049Y366445D01*
X249468Y363018D01*
X252091Y360396D01*
X255518Y358976D01*
X259228Y358976D01*
X262655Y360396D01*
X265277Y363018D01*
X266697Y366445D01*
X266697Y370155D01*
X265277Y373582D01*
X262655Y376205D01*
X260135Y377248D01*
X259914Y377388D01*
X259735Y377633D01*
X259665Y377928D01*
X259716Y378227D01*
X259880Y378482D01*
X260130Y378654D01*
X260427Y378714D01*
X279719Y378714D01*
X279977Y378669D01*
X280236Y378512D01*
X280413Y378266D01*
X280481Y377970D01*
X280427Y377672D01*
X280262Y377418D01*
X280010Y377248D01*
X277491Y376205D01*
X274868Y373582D01*
X273449Y370155D01*
X273449Y366445D01*
X274868Y363018D01*
X277491Y360396D01*
X280918Y358976D01*
X284628Y358976D01*
X288055Y360396D01*
X290677Y363018D01*
X292097Y366445D01*
X292097Y370155D01*
X290677Y373582D01*
X288055Y376205D01*
X285535Y377248D01*
X285314Y377388D01*
X285135Y377633D01*
X285065Y377928D01*
X285116Y378227D01*
X285280Y378482D01*
X285530Y378654D01*
X285827Y378714D01*
X305119Y378714D01*
X305377Y378669D01*
X305636Y378512D01*
X305813Y378266D01*
X305881Y377970D01*
X305827Y377672D01*
X305662Y377418D01*
X305410Y377248D01*
X302891Y376205D01*
X300268Y373582D01*
X298849Y370155D01*
X298849Y366445D01*
X300268Y363018D01*
X302891Y360396D01*
X306318Y358976D01*
X310028Y358976D01*
X313455Y360396D01*
X316077Y363018D01*
X317497Y366445D01*
X317497Y370155D01*
X316077Y373582D01*
X313455Y376205D01*
X310935Y377248D01*
X310714Y377388D01*
X310535Y377633D01*
X310465Y377928D01*
X310516Y378227D01*
X310680Y378482D01*
X310930Y378654D01*
X311227Y378714D01*
X330519Y378714D01*
X330777Y378669D01*
X331036Y378512D01*
X331213Y378266D01*
X331281Y377970D01*
X331227Y377672D01*
X331062Y377418D01*
X330810Y377248D01*
X328291Y376205D01*
X325668Y373582D01*
X324249Y370155D01*
X324249Y366445D01*
X325668Y363018D01*
X328291Y360396D01*
X331718Y358976D01*
X335428Y358976D01*
X338855Y360396D01*
X341477Y363018D01*
X342897Y366445D01*
X342897Y370155D01*
X341477Y373582D01*
X338855Y376205D01*
X336335Y377248D01*
X336114Y377388D01*
X335935Y377633D01*
X335865Y377928D01*
X335916Y378227D01*
X336080Y378482D01*
X336330Y378654D01*
X336627Y378714D01*
X355919Y378714D01*
X356177Y378669D01*
X356436Y378512D01*
X356613Y378266D01*
X356681Y377970D01*
X356627Y377672D01*
X356462Y377418D01*
X356210Y377248D01*
X353691Y376205D01*
X351068Y373582D01*
X349649Y370155D01*
X349649Y366445D01*
X351068Y363018D01*
X353691Y360396D01*
X357118Y358976D01*
X360828Y358976D01*
X364255Y360396D01*
X366877Y363018D01*
X368297Y366445D01*
X368297Y370155D01*
X366877Y373582D01*
X364255Y376205D01*
X361735Y377248D01*
X361514Y377388D01*
X361335Y377633D01*
X361265Y377928D01*
X361316Y378227D01*
X361480Y378482D01*
X361730Y378654D01*
X362027Y378714D01*
X381319Y378714D01*
X381577Y378669D01*
X381836Y378512D01*
X382013Y378266D01*
X382081Y377970D01*
X382027Y377672D01*
X381862Y377418D01*
X381610Y377248D01*
X379091Y376205D01*
X376468Y373582D01*
X375049Y370155D01*
X375049Y366445D01*
X376468Y363018D01*
X379091Y360396D01*
X382518Y358976D01*
X386228Y358976D01*
X389655Y360396D01*
X392277Y363018D01*
X393697Y366445D01*
X393697Y370155D01*
X392277Y373582D01*
X389655Y376205D01*
X387135Y377248D01*
X386914Y377388D01*
X386735Y377633D01*
X386665Y377928D01*
X386716Y378227D01*
X386880Y378482D01*
X387130Y378654D01*
X387427Y378714D01*
X389262Y378714D01*
X389548Y378658D01*
X389801Y378491D01*
X400226Y368066D01*
X400389Y367825D01*
X400449Y367528D01*
X400449Y366445D01*
X401868Y363018D01*
X404491Y360396D01*
X407918Y358976D01*
X411628Y358976D01*
X415055Y360396D01*
X417677Y363018D01*
X419097Y366445D01*
X419097Y370155D01*
X417677Y373582D01*
X415055Y376205D01*
X411628Y377624D01*
X407918Y377624D01*
X404491Y376205D01*
X402061Y373774D01*
X401831Y373616D01*
X401535Y373551D01*
X401236Y373607D01*
X400984Y373774D01*
X393034Y381724D01*
X391472Y383286D01*
X89541Y383286D01*
X88021Y381767D01*
X87780Y381604D01*
X87482Y381544D01*
X84991Y381544D01*
X84728Y381590D01*
X84470Y381750D01*
X84294Y381997D01*
X84229Y382293D01*
X84285Y382591D01*
X84452Y382844D01*
X99124Y397516D01*
X99124Y421504D01*
X99179Y421790D01*
X99347Y422043D01*
X102144Y424840D01*
X102144Y429235D01*
X99035Y432344D01*
X94640Y432344D01*
X91532Y429235D01*
X91532Y424840D01*
X94328Y422043D01*
X94491Y421801D01*
X94552Y421504D01*
X94552Y399725D01*
X94496Y399439D01*
X94328Y399186D01*
X76909Y381767D01*
X76667Y381604D01*
X76370Y381544D01*
X72415Y381544D01*
X69307Y378435D01*
X69307Y374040D01*
X72415Y370932D01*
X76370Y370932D01*
X76656Y370876D01*
X76909Y370708D01*
X99066Y348552D01*
X108077Y348552D01*
X108352Y348500D01*
X108607Y348337D01*
X108779Y348087D01*
X108839Y347790D01*
X108839Y337067D01*
X108792Y336804D01*
X108633Y336546D01*
X108385Y336370D01*
X108089Y336305D01*
X107791Y336361D01*
X107538Y336528D01*
X106973Y337094D01*
X102577Y337094D01*
X99780Y334297D01*
X99539Y334134D01*
X99242Y334074D01*
X78558Y334074D01*
X78272Y334129D01*
X78020Y334297D01*
X75223Y337094D01*
X70827Y337094D01*
X67719Y333985D01*
X67719Y329590D01*
X70827Y326482D01*
X75223Y326482D01*
X78020Y329278D01*
X78261Y329441D01*
X78558Y329502D01*
X99242Y329502D01*
X99528Y329446D01*
X99780Y329278D01*
X102577Y326482D01*
X106973Y326482D01*
X107538Y327047D01*
X107758Y327200D01*
X108053Y327270D01*
X108352Y327219D01*
X108607Y327055D01*
X108779Y326805D01*
X108839Y326508D01*
X108839Y271138D01*
X108783Y270852D01*
X108616Y270599D01*
X70559Y232542D01*
X70317Y232379D01*
X70020Y232319D01*
X66065Y232319D01*
X62957Y229210D01*
X62957Y224815D01*
X66065Y221707D01*
G37*
G36*
X585718Y358976D02*
X589428Y358976D01*
X592855Y360396D01*
X595477Y363018D01*
X596897Y366445D01*
X596897Y370155D01*
X595477Y373582D01*
X592855Y376205D01*
X589428Y377624D01*
X585718Y377624D01*
X582291Y376205D01*
X579668Y373582D01*
X578249Y370155D01*
X578249Y366445D01*
X579668Y363018D01*
X582291Y360396D01*
X585718Y358976D01*
G37*
G36*
X560318Y358976D02*
X564028Y358976D01*
X567455Y360396D01*
X570077Y363018D01*
X571497Y366445D01*
X571497Y370155D01*
X570077Y373582D01*
X567455Y376205D01*
X564028Y377624D01*
X560318Y377624D01*
X556891Y376205D01*
X554268Y373582D01*
X552849Y370155D01*
X552849Y366445D01*
X554268Y363018D01*
X556891Y360396D01*
X560318Y358976D01*
G37*
G36*
X534918Y358976D02*
X538628Y358976D01*
X542055Y360396D01*
X544677Y363018D01*
X546097Y366445D01*
X546097Y370155D01*
X544677Y373582D01*
X542055Y376205D01*
X538628Y377624D01*
X534918Y377624D01*
X531491Y376205D01*
X528868Y373582D01*
X527449Y370155D01*
X527449Y366445D01*
X528868Y363018D01*
X531491Y360396D01*
X534918Y358976D01*
G37*
G36*
X509518Y358976D02*
X513228Y358976D01*
X516655Y360396D01*
X519277Y363018D01*
X520697Y366445D01*
X520697Y370155D01*
X519277Y373582D01*
X516655Y376205D01*
X513228Y377624D01*
X509518Y377624D01*
X506091Y376205D01*
X503468Y373582D01*
X502049Y370155D01*
X502049Y366445D01*
X503468Y363018D01*
X506091Y360396D01*
X509518Y358976D01*
G37*
G36*
X484118Y358976D02*
X487828Y358976D01*
X491255Y360396D01*
X493877Y363018D01*
X495297Y366445D01*
X495297Y370155D01*
X493877Y373582D01*
X491255Y376205D01*
X487828Y377624D01*
X484118Y377624D01*
X480691Y376205D01*
X478068Y373582D01*
X476649Y370155D01*
X476649Y366445D01*
X478068Y363018D01*
X480691Y360396D01*
X484118Y358976D01*
G37*
G36*
X458718Y358976D02*
X462428Y358976D01*
X465855Y360396D01*
X468477Y363018D01*
X469897Y366445D01*
X469897Y370155D01*
X468477Y373582D01*
X465855Y376205D01*
X462428Y377624D01*
X458718Y377624D01*
X455291Y376205D01*
X452668Y373582D01*
X451249Y370155D01*
X451249Y366445D01*
X452668Y363018D01*
X455291Y360396D01*
X458718Y358976D01*
G37*
G36*
X433318Y358976D02*
X437028Y358976D01*
X440455Y360396D01*
X443077Y363018D01*
X444497Y366445D01*
X444497Y370155D01*
X443077Y373582D01*
X440455Y376205D01*
X437028Y377624D01*
X433318Y377624D01*
X429891Y376205D01*
X427268Y373582D01*
X425849Y370155D01*
X425849Y366445D01*
X427268Y363018D01*
X429891Y360396D01*
X433318Y358976D01*
G37*
G36*
X343877Y83594D02*
X348273Y83594D01*
X351381Y86702D01*
X351381Y91098D01*
X348584Y93895D01*
X348421Y94136D01*
X348361Y94433D01*
X348361Y111724D01*
X348406Y111981D01*
X348563Y112241D01*
X348809Y112418D01*
X349105Y112486D01*
X349403Y112432D01*
X349658Y112267D01*
X349827Y112015D01*
X351068Y109018D01*
X353691Y106396D01*
X357118Y104976D01*
X360828Y104976D01*
X364255Y106396D01*
X366877Y109018D01*
X368297Y112445D01*
X368297Y116155D01*
X366877Y119582D01*
X364255Y122205D01*
X360828Y123624D01*
X357118Y123624D01*
X355111Y122793D01*
X354856Y122736D01*
X354556Y122782D01*
X354298Y122941D01*
X354123Y123188D01*
X354058Y123485D01*
X354113Y123783D01*
X354281Y124036D01*
X545391Y315146D01*
X545633Y315309D01*
X545930Y315369D01*
X549885Y315369D01*
X552994Y318477D01*
X552994Y322873D01*
X549885Y325981D01*
X545490Y325981D01*
X542382Y322873D01*
X542382Y318918D01*
X542326Y318632D01*
X542158Y318379D01*
X343789Y120009D01*
X343789Y117832D01*
X343744Y117574D01*
X343587Y117315D01*
X343341Y117137D01*
X343045Y117070D01*
X342747Y117123D01*
X342493Y117289D01*
X342323Y117540D01*
X341477Y119582D01*
X338855Y122205D01*
X335428Y123624D01*
X331718Y123624D01*
X328291Y122205D01*
X325668Y119582D01*
X324249Y116155D01*
X324249Y112445D01*
X325668Y109018D01*
X328291Y106396D01*
X331718Y104976D01*
X335428Y104976D01*
X338855Y106396D01*
X341477Y109018D01*
X342323Y111060D01*
X342463Y111281D01*
X342708Y111460D01*
X343003Y111530D01*
X343302Y111479D01*
X343557Y111316D01*
X343729Y111066D01*
X343789Y110768D01*
X343789Y94433D01*
X343733Y94147D01*
X343566Y93895D01*
X340769Y91098D01*
X340769Y86702D01*
X343877Y83594D01*
G37*
G36*
X656615Y70894D02*
X661010Y70894D01*
X664119Y74002D01*
X664119Y78398D01*
X661322Y81195D01*
X661159Y81436D01*
X661099Y81733D01*
X661099Y277042D01*
X661154Y277328D01*
X661322Y277580D01*
X664119Y280377D01*
X664119Y284773D01*
X661010Y287881D01*
X656615Y287881D01*
X653507Y284773D01*
X653507Y280377D01*
X656303Y277580D01*
X656466Y277339D01*
X656527Y277042D01*
X656527Y81733D01*
X656471Y81447D01*
X656303Y81195D01*
X653507Y78398D01*
X653507Y74002D01*
X656615Y70894D01*
G37*
G36*
X484118Y104976D02*
X487828Y104976D01*
X491255Y106396D01*
X493877Y109018D01*
X495297Y112445D01*
X495297Y116155D01*
X494658Y117697D01*
X494600Y117977D01*
X494656Y118275D01*
X494823Y118528D01*
X500786Y124491D01*
X501028Y124654D01*
X501325Y124714D01*
X508319Y124714D01*
X508577Y124669D01*
X508836Y124512D01*
X509013Y124266D01*
X509081Y123970D01*
X509027Y123672D01*
X508862Y123418D01*
X508610Y123248D01*
X506091Y122205D01*
X503468Y119582D01*
X502049Y116155D01*
X502049Y112445D01*
X503468Y109018D01*
X506091Y106396D01*
X509518Y104976D01*
X513228Y104976D01*
X516655Y106396D01*
X519277Y109018D01*
X520697Y112445D01*
X520697Y116155D01*
X519277Y119582D01*
X516655Y122205D01*
X514135Y123248D01*
X513914Y123388D01*
X513735Y123633D01*
X513665Y123928D01*
X513716Y124227D01*
X513880Y124482D01*
X514130Y124654D01*
X514427Y124714D01*
X533719Y124714D01*
X533977Y124669D01*
X534236Y124512D01*
X534413Y124266D01*
X534481Y123970D01*
X534427Y123672D01*
X534262Y123418D01*
X534010Y123248D01*
X531491Y122205D01*
X528868Y119582D01*
X527449Y116155D01*
X527449Y112445D01*
X528868Y109018D01*
X531491Y106396D01*
X534918Y104976D01*
X538628Y104976D01*
X542055Y106396D01*
X544677Y109018D01*
X546097Y112445D01*
X546097Y116155D01*
X544677Y119582D01*
X542055Y122205D01*
X539535Y123248D01*
X539314Y123388D01*
X539135Y123633D01*
X539065Y123928D01*
X539116Y124227D01*
X539280Y124482D01*
X539530Y124654D01*
X539827Y124714D01*
X541662Y124714D01*
X541948Y124658D01*
X542201Y124491D01*
X552626Y114066D01*
X552789Y113825D01*
X552849Y113528D01*
X552849Y112445D01*
X554268Y109018D01*
X556891Y106396D01*
X560318Y104976D01*
X564028Y104976D01*
X567455Y106396D01*
X570077Y109018D01*
X571497Y112445D01*
X571497Y116155D01*
X570077Y119582D01*
X567455Y122205D01*
X564028Y123624D01*
X560318Y123624D01*
X556891Y122205D01*
X554461Y119774D01*
X554231Y119616D01*
X553935Y119551D01*
X553636Y119607D01*
X553384Y119774D01*
X545434Y127724D01*
X543872Y129286D01*
X499116Y129286D01*
X492166Y122336D01*
X491930Y122176D01*
X491633Y122113D01*
X491335Y122171D01*
X487828Y123624D01*
X484118Y123624D01*
X480691Y122205D01*
X478068Y119582D01*
X476649Y116155D01*
X476649Y112445D01*
X478068Y109018D01*
X480691Y106396D01*
X484118Y104976D01*
G37*
G36*
X611118Y104976D02*
X614828Y104976D01*
X618255Y106396D01*
X620877Y109018D01*
X622297Y112445D01*
X622297Y116155D01*
X620877Y119582D01*
X618255Y122205D01*
X614828Y123624D01*
X611118Y123624D01*
X607691Y122205D01*
X605068Y119582D01*
X603649Y116155D01*
X603649Y112445D01*
X605068Y109018D01*
X607691Y106396D01*
X611118Y104976D01*
G37*
G36*
X585718Y104976D02*
X589428Y104976D01*
X592855Y106396D01*
X595477Y109018D01*
X596897Y112445D01*
X596897Y116155D01*
X595477Y119582D01*
X592855Y122205D01*
X589428Y123624D01*
X585718Y123624D01*
X582291Y122205D01*
X579668Y119582D01*
X578249Y116155D01*
X578249Y112445D01*
X579668Y109018D01*
X582291Y106396D01*
X585718Y104976D01*
G37*
G36*
X458718Y104976D02*
X462428Y104976D01*
X465855Y106396D01*
X468477Y109018D01*
X469897Y112445D01*
X469897Y116155D01*
X468477Y119582D01*
X465855Y122205D01*
X462428Y123624D01*
X458718Y123624D01*
X455291Y122205D01*
X452668Y119582D01*
X451249Y116155D01*
X451249Y112445D01*
X452668Y109018D01*
X455291Y106396D01*
X458718Y104976D01*
G37*
G36*
X433318Y104976D02*
X437028Y104976D01*
X440455Y106396D01*
X443077Y109018D01*
X444497Y112445D01*
X444497Y116155D01*
X443077Y119582D01*
X440455Y122205D01*
X437028Y123624D01*
X433318Y123624D01*
X429891Y122205D01*
X427268Y119582D01*
X425849Y116155D01*
X425849Y112445D01*
X427268Y109018D01*
X429891Y106396D01*
X433318Y104976D01*
G37*
G36*
X407918Y104976D02*
X411628Y104976D01*
X415055Y106396D01*
X417677Y109018D01*
X419097Y112445D01*
X419097Y116155D01*
X417677Y119582D01*
X415055Y122205D01*
X411628Y123624D01*
X407918Y123624D01*
X404491Y122205D01*
X401868Y119582D01*
X400449Y116155D01*
X400449Y112445D01*
X401868Y109018D01*
X404491Y106396D01*
X407918Y104976D01*
G37*
G36*
X382518Y104976D02*
X386228Y104976D01*
X389655Y106396D01*
X392277Y109018D01*
X393697Y112445D01*
X393697Y116155D01*
X392277Y119582D01*
X389655Y122205D01*
X386228Y123624D01*
X382518Y123624D01*
X379091Y122205D01*
X376468Y119582D01*
X375049Y116155D01*
X375049Y112445D01*
X376468Y109018D01*
X379091Y106396D01*
X382518Y104976D01*
G37*
G36*
X306318Y104976D02*
X310028Y104976D01*
X313455Y106396D01*
X316077Y109018D01*
X317497Y112445D01*
X317497Y116155D01*
X316077Y119582D01*
X313455Y122205D01*
X310028Y123624D01*
X306318Y123624D01*
X302891Y122205D01*
X300268Y119582D01*
X298849Y116155D01*
X298849Y112445D01*
X300268Y109018D01*
X302891Y106396D01*
X306318Y104976D01*
G37*
G36*
X280918Y104976D02*
X284628Y104976D01*
X288055Y106396D01*
X290677Y109018D01*
X292097Y112445D01*
X292097Y116155D01*
X290677Y119582D01*
X288055Y122205D01*
X284628Y123624D01*
X280918Y123624D01*
X277491Y122205D01*
X274868Y119582D01*
X273449Y116155D01*
X273449Y112445D01*
X274868Y109018D01*
X277491Y106396D01*
X280918Y104976D01*
G37*
G36*
X255518Y104976D02*
X259228Y104976D01*
X262655Y106396D01*
X265277Y109018D01*
X266697Y112445D01*
X266697Y116155D01*
X265277Y119582D01*
X262655Y122205D01*
X259228Y123624D01*
X255518Y123624D01*
X252091Y122205D01*
X249468Y119582D01*
X248049Y116155D01*
X248049Y112445D01*
X249468Y109018D01*
X252091Y106396D01*
X255518Y104976D01*
G37*
G36*
X230118Y104976D02*
X233828Y104976D01*
X237255Y106396D01*
X239877Y109018D01*
X241297Y112445D01*
X241297Y116155D01*
X239877Y119582D01*
X237255Y122205D01*
X233828Y123624D01*
X230118Y123624D01*
X226691Y122205D01*
X224068Y119582D01*
X222649Y116155D01*
X222649Y112445D01*
X224068Y109018D01*
X226691Y106396D01*
X230118Y104976D01*
G37*
G36*
X204718Y104976D02*
X208428Y104976D01*
X211855Y106396D01*
X214477Y109018D01*
X215897Y112445D01*
X215897Y116155D01*
X214477Y119582D01*
X211855Y122205D01*
X208428Y123624D01*
X204718Y123624D01*
X201291Y122205D01*
X198668Y119582D01*
X197249Y116155D01*
X197249Y112445D01*
X198668Y109018D01*
X201291Y106396D01*
X204718Y104976D01*
G37*
G36*
X179318Y104976D02*
X183028Y104976D01*
X186455Y106396D01*
X189077Y109018D01*
X190497Y112445D01*
X190497Y116155D01*
X189077Y119582D01*
X186455Y122205D01*
X183028Y123624D01*
X179318Y123624D01*
X175891Y122205D01*
X173268Y119582D01*
X171849Y116155D01*
X171849Y112445D01*
X173268Y109018D01*
X175891Y106396D01*
X179318Y104976D01*
G37*
G36*
X153918Y104976D02*
X157628Y104976D01*
X161055Y106396D01*
X163677Y109018D01*
X165097Y112445D01*
X165097Y116155D01*
X163677Y119582D01*
X161055Y122205D01*
X157628Y123624D01*
X153918Y123624D01*
X150491Y122205D01*
X147868Y119582D01*
X146449Y116155D01*
X146449Y112445D01*
X147868Y109018D01*
X150491Y106396D01*
X153918Y104976D01*
G37*
%LPD*%
G36*
X515464Y440496D02*
X515167Y440436D01*
X275408Y440436D01*
X275122Y440492D01*
X274870Y440659D01*
X274616Y440913D01*
X274463Y441133D01*
X274393Y441428D01*
X274444Y441727D01*
X274607Y441982D01*
X274857Y442154D01*
X275154Y442214D01*
X515421Y442214D01*
X515684Y442167D01*
X515942Y442008D01*
X516117Y441760D01*
X516182Y441464D01*
X516127Y441166D01*
X515959Y440913D01*
X515705Y440659D01*
X515464Y440496D01*
G37*
G36*
X515718Y434146D02*
X515421Y434086D01*
X275154Y434086D01*
X274891Y434133D01*
X274633Y434292D01*
X274458Y434540D01*
X274393Y434836D01*
X274448Y435134D01*
X274616Y435387D01*
X274870Y435641D01*
X275111Y435804D01*
X275408Y435864D01*
X515167Y435864D01*
X515453Y435808D01*
X515705Y435641D01*
X515959Y435387D01*
X516112Y435167D01*
X516182Y434872D01*
X516131Y434573D01*
X515968Y434318D01*
X515718Y434146D01*
G37*
G36*
X133130Y353184D02*
X132833Y353124D01*
X101275Y353124D01*
X100989Y353179D01*
X100736Y353347D01*
X84452Y369631D01*
X84299Y369850D01*
X84229Y370145D01*
X84280Y370444D01*
X84444Y370700D01*
X84694Y370871D01*
X84991Y370932D01*
X87923Y370932D01*
X91031Y374040D01*
X91031Y377952D01*
X91082Y378227D01*
X91246Y378482D01*
X91496Y378654D01*
X91793Y378714D01*
X131246Y378714D01*
X131509Y378667D01*
X131767Y378508D01*
X131942Y378260D01*
X132007Y377964D01*
X131952Y377666D01*
X131784Y377413D01*
X131530Y377159D01*
X131289Y376996D01*
X130992Y376936D01*
X126053Y376936D01*
X121359Y372242D01*
X121117Y372079D01*
X120820Y372019D01*
X116865Y372019D01*
X113757Y368910D01*
X113757Y364515D01*
X116865Y361407D01*
X121260Y361407D01*
X123286Y363432D01*
X123517Y363590D01*
X123813Y363655D01*
X124111Y363600D01*
X124364Y363432D01*
X126390Y361407D01*
X130345Y361407D01*
X130631Y361351D01*
X130884Y361183D01*
X132583Y359484D01*
X132746Y359242D01*
X132807Y358945D01*
X132807Y354990D01*
X133372Y354424D01*
X133525Y354205D01*
X133595Y353910D01*
X133544Y353611D01*
X133380Y353355D01*
X133130Y353184D01*
G37*
G36*
X349442Y116184D02*
X349147Y116115D01*
X348848Y116166D01*
X348593Y116329D01*
X348421Y116579D01*
X348361Y116876D01*
X348361Y117800D01*
X348417Y118086D01*
X348584Y118339D01*
X349237Y118992D01*
X349451Y119142D01*
X349746Y119215D01*
X350045Y119166D01*
X350302Y119005D01*
X350475Y118756D01*
X350538Y118459D01*
X350480Y118162D01*
X349827Y116585D01*
X349687Y116364D01*
X349442Y116184D01*
G37*
D10*
X612973Y368300D03*
D11*
X587573Y368300D03*
X562173Y368300D03*
X536773Y368300D03*
X511373Y368300D03*
X485973Y368300D03*
X460573Y368300D03*
X435173Y368300D03*
X409773Y368300D03*
X384373Y368300D03*
X358973Y368300D03*
X333573Y368300D03*
X308173Y368300D03*
X282773Y368300D03*
X257373Y368300D03*
X231973Y368300D03*
X206573Y368300D03*
X181173Y368300D03*
X155773Y368300D03*
X612973Y114300D03*
X587573Y114300D03*
X562173Y114300D03*
X536773Y114300D03*
X511373Y114300D03*
X485973Y114300D03*
X460573Y114300D03*
X435173Y114300D03*
X409773Y114300D03*
X384373Y114300D03*
X358973Y114300D03*
X333573Y114300D03*
X308173Y114300D03*
X282773Y114300D03*
X257373Y114300D03*
X231973Y114300D03*
X206573Y114300D03*
X181173Y114300D03*
X155773Y114300D03*
D12*
X138113Y357188D02*
X128588Y366713D01*
D13*
X128588Y366713D03*
X138113Y357188D03*
D12*
X658813Y282575D02*
X658813Y76200D01*
X127000Y374650D02*
X119063Y366713D01*
X127000Y374650D02*
X136525Y374650D01*
X636588Y406400D02*
X706438Y336550D01*
X636588Y406400D02*
X290513Y406400D01*
D13*
X658813Y282575D03*
X658813Y76200D03*
X119063Y366713D03*
X136525Y374650D03*
X706438Y336550D03*
X290513Y406400D03*
D12*
X557213Y431800D02*
X566738Y441325D01*
X557213Y431800D02*
X193675Y431800D01*
D13*
X566738Y441325D03*
X193675Y431800D03*
D12*
X547688Y414338D02*
X558800Y425450D01*
X547688Y320675D02*
X346075Y119063D01*
X346075Y88900D01*
D13*
X558800Y425450D03*
X547688Y414338D03*
X547688Y320675D03*
X346075Y88900D03*
D12*
X538163Y441325D02*
X534988Y444500D01*
X193675Y444500D01*
D13*
X538163Y441325D03*
X193675Y444500D03*
D12*
X269875Y438150D02*
X520700Y438150D01*
D13*
X520700Y438150D03*
X269875Y438150D03*
D12*
X407988Y425450D02*
X411163Y422275D01*
X407988Y425450D02*
X119063Y425450D01*
X112713Y431800D01*
D13*
X411163Y422275D03*
X112713Y431800D03*
D12*
X96838Y398463D02*
X74613Y376238D01*
X96838Y398463D02*
X96838Y427038D01*
X614363Y350838D02*
X730250Y234950D01*
X111125Y350838D02*
X100013Y350838D01*
X111125Y350838D02*
X614363Y350838D01*
X100013Y350838D02*
X74613Y376238D01*
X111125Y269875D02*
X68263Y227013D01*
X111125Y269875D02*
X111125Y350838D01*
D13*
X74613Y376238D03*
X96838Y427038D03*
X730250Y234950D03*
X68263Y227013D03*
D12*
X85725Y376238D02*
X90488Y381000D01*
X390525Y381000D01*
X403225Y368300D01*
X409773Y368300D01*
D13*
X85725Y376238D03*
D12*
X73025Y331788D02*
X104775Y331788D01*
X614363Y368300D02*
X652463Y330200D01*
X725488Y330200D01*
X614363Y368300D02*
X612973Y368300D01*
D13*
X73025Y331788D03*
X104775Y331788D03*
X725488Y330200D03*
D12*
X500063Y127000D02*
X487363Y114300D01*
X500063Y127000D02*
X542925Y127000D01*
X555625Y114300D01*
X562173Y114300D01*
X487363Y114300D02*
X485973Y114300D01*
M02*
